<svg width="65" height="82" viewBox="0 0 65 82" fill="none" xmlns="http://www.w3.org/2000/svg">
<path d="M42.671 42.3222L52.3363 48.1703L52.5683 59.4648L62.6449 65.5516C63.0856 65.8414 63.6572 65.6474 63.8983 65.2362C64.1906 64.7953 63.9986 64.2259 63.5873 63.9871L54.3627 58.4288L54.1307 47.1343L44.4654 41.2862L44.2335 29.9917L34.5681 24.1436L34.3362 12.8491L24.2595 6.76229C23.8188 6.47253 23.2472 6.66649 23.0062 7.07777C22.7138 7.51865 22.9059 8.08804 23.3171 8.32678L32.5418 13.8851L32.7737 25.1796L42.4391 31.0277L42.671 42.3222Z" fill="#3EB15D"/>
<path d="M35.5963 46.4071L45.2616 52.2551L45.4936 63.5496L55.5702 69.6365C56.0109 69.9262 56.5825 69.7323 56.8236 69.321C57.1159 68.8801 56.9239 68.3107 56.5126 68.072L47.288 62.5136L47.056 51.2191L37.3907 45.3711L37.1588 34.0766L27.4934 28.2285L27.2615 16.934L17.1848 10.8471C16.7441 10.5574 16.1725 10.7513 15.9315 11.1626C15.6391 11.6035 15.8312 12.1729 16.2424 12.4116L25.4671 17.97L25.699 29.2645L35.3643 35.1126L35.5963 46.4071Z" fill="#3EB15D"/>
<path d="M28.5211 50.4919L38.1864 56.34L38.4184 67.6345L48.495 73.7213C48.9357 74.0111 49.5073 73.8171 49.7484 73.4058C50.0407 72.965 49.8487 72.3956 49.4374 72.1568L40.2128 66.5985L39.9808 55.304L30.3155 49.4559L30.0836 38.1614L20.4182 32.3133L20.1863 21.0188L10.1096 14.932C9.66892 14.6422 9.09732 14.8362 8.85627 15.2474C8.56394 15.6883 8.75597 16.2577 9.16724 16.4965L18.3919 22.0548L18.6238 33.3493L28.2892 39.1974L28.5211 50.4919Z" fill="#3EB15D"/>
<path d="M21.4971 54.5471L31.1625 60.3952L31.3944 71.6897L41.4711 77.7765C41.9118 78.0663 42.4834 77.8723 42.7244 77.461C43.0168 77.0201 42.8247 76.4507 42.4135 76.212L33.1888 70.6537L32.9569 59.3592L23.2916 53.5111L23.0596 42.2166L13.3943 36.3685L13.1624 25.074L3.08572 18.9871C2.645 18.6974 2.0734 18.8913 1.83234 19.3026C1.54002 19.7435 1.73204 20.3129 2.14331 20.5516L11.3679 26.11L11.6293 37.4555L21.2947 43.3036L21.4971 54.5471Z" fill="#3EB15D"/>
<path d="M41.4615 38.8096L51.1269 44.6577L51.3588 55.9522L61.4354 62.0391C61.8761 62.3288 62.4477 62.1349 62.6888 61.7236C62.9811 61.2827 62.7891 60.7133 62.3778 60.4746L53.1532 54.9162L52.9213 43.6217L43.2559 37.7736L43.024 26.4791L33.3586 20.631L33.1267 9.33655L23.0501 3.24971C22.6094 2.95996 22.0378 3.15392 21.7967 3.56519C21.5556 3.97647 21.6964 4.57547 22.1077 4.81421L31.3323 10.3725L31.5642 21.667L41.2296 27.5151L41.4615 38.8096Z" fill="#63CE7F"/>
<path d="M34.3868 42.8945L44.0522 48.7426L44.2841 60.0371L54.3607 66.1239C54.8014 66.4137 55.373 66.2197 55.6141 65.8084C55.9064 65.3675 55.7144 64.7982 55.3031 64.5594L46.0785 59.0011L45.8466 47.7066L36.1812 41.8585L35.9493 30.564L26.2839 24.7159L26.052 13.4214L15.9754 7.33455C15.5346 7.04479 14.963 7.23875 14.722 7.65003C14.4297 8.09091 14.6217 8.66031 15.033 8.89905L24.2576 14.4574L24.4895 25.7519L34.1549 31.6L34.3868 42.8945Z" fill="#63CE7F"/>
<path d="M27.3116 46.9792L36.977 52.8273L37.2089 64.1218L47.2855 70.2086C47.7262 70.4984 48.2978 70.3044 48.5389 69.8931C48.8312 69.4523 48.6392 68.8829 48.2279 68.6441L39.0033 63.0858L38.7714 51.7913L29.106 45.9432L28.8741 34.6487L19.2087 28.8006L18.9768 17.5061L8.90017 11.4193C8.45945 11.1295 7.88785 11.3235 7.64679 11.7348C7.35447 12.1756 7.54649 12.745 7.95776 12.9838L17.1824 18.5421L17.4143 29.8366L27.0797 35.6847L27.3116 46.9792Z" fill="#63CE7F"/>
<path d="M20.2366 51.0643L29.902 56.9124L30.1339 68.2069L40.2105 74.2937C40.6513 74.5834 41.2228 74.3895 41.4639 73.9782C41.7562 73.5373 41.5642 72.9679 41.1529 72.7292L31.9283 67.1709L31.6964 55.8764L22.0823 49.9987L21.8504 38.7042L12.185 32.8561L11.9531 21.5616L1.87646 15.4747C1.41392 15.2656 0.864133 15.3789 0.571808 15.8198C0.330752 16.2311 0.471508 16.8301 0.882776 17.0688L10.1074 22.6272L10.3393 33.9217L20.0047 39.7698L20.2366 51.0643Z" fill="#63CE7F"/>
</svg>
