<svg width="1920" height="750" viewBox="0 0 1920 750" fill="none" xmlns="http://www.w3.org/2000/svg">
<path d="M0 152H1920V595H0L0 152Z" fill="#F1F1F1"/>
<mask id="mask0_2039_542" style="mask-type:alpha" maskUnits="userSpaceOnUse" x="0" y="152" width="1920" height="443">
<path d="M0 152H1920V595H0L0 152Z" fill="#F1F1F1"/>
</mask>
<g mask="url(#mask0_2039_542)">
<g opacity="0.2">
<path d="M955.462 703.579C946.58 668.745 950.334 591.263 1036.41 560.005C1122.49 528.747 1147.66 454.908 1149.49 421.895C1150.69 389.521 1166.2 324.665 1218.61 324.234C1271.02 323.803 1282.45 262.833 1281.61 232.402C1278.88 212.47 1284.15 167.631 1327.1 147.727" stroke="#7D8087"/>
<path d="M942.647 693.775C933.765 658.941 937.519 581.459 1023.6 550.201C1109.67 518.943 1134.85 445.104 1136.67 412.091C1137.88 379.717 1153.39 314.861 1205.8 314.43C1258.2 313.999 1269.63 253.029 1268.79 222.598C1266.06 202.666 1271.34 157.827 1314.29 137.923" stroke="#7D8087"/>
<path d="M929.832 683.97C920.949 649.136 924.704 571.654 1010.78 540.396C1096.86 509.138 1122.03 435.299 1123.86 402.286C1125.06 369.912 1140.57 305.056 1192.98 304.625C1245.39 304.194 1256.82 243.224 1255.98 212.792C1253.25 192.861 1258.52 148.022 1301.47 128.117" stroke="#7D8087"/>
<path d="M917.017 674.166C908.134 639.332 911.889 561.85 997.966 530.592C1084.04 499.334 1109.22 425.495 1111.04 392.482C1112.25 360.108 1127.76 295.252 1180.17 294.821C1232.57 294.39 1244 233.42 1243.16 202.989C1240.43 183.057 1245.71 138.218 1288.66 118.313" stroke="#7D8087"/>
<path d="M904.202 664.361C895.319 629.527 899.074 552.045 985.151 520.787C1071.23 489.529 1096.4 415.69 1098.23 382.677C1099.43 350.303 1114.94 285.447 1167.35 285.016C1219.76 284.585 1231.19 223.615 1230.35 193.184C1227.62 173.252 1232.89 128.413 1275.84 108.509" stroke="#7D8087"/>
<path d="M891.387 654.557C882.504 619.723 886.259 542.241 972.336 510.983C1058.41 479.725 1083.59 405.886 1085.41 372.873C1086.62 340.499 1102.13 275.643 1154.54 275.212C1206.94 274.781 1218.37 213.811 1217.53 183.38C1214.8 163.448 1220.08 118.609 1263.03 98.7046" stroke="#7D8087"/>
<path d="M878.572 644.752C869.689 609.918 873.444 532.436 959.521 501.178C1045.6 469.921 1070.77 396.081 1072.6 363.069C1073.8 330.695 1089.31 265.838 1141.72 265.407C1194.13 264.976 1205.56 204.006 1204.72 173.575C1201.99 153.643 1207.26 108.804 1250.21 88.8999" stroke="#7D8087"/>
<path d="M865.757 634.947C856.874 600.113 860.628 522.631 946.706 491.373C1032.78 460.116 1057.96 386.276 1059.78 353.264C1060.99 320.89 1076.5 256.033 1128.91 255.602C1181.31 255.171 1192.74 194.201 1191.9 163.77C1189.17 143.838 1194.45 98.9991 1237.4 79.0949" stroke="#7D8087"/>
</g>
</g>
<g filter="url(#filter0_f_2039_542)">
<ellipse cx="1741" cy="390.292" rx="179" ry="157" fill="#FFF3EB"/>
</g>
<g opacity="0.1" filter="url(#filter1_f_2039_542)">
<path fill-rule="evenodd" clip-rule="evenodd" d="M117.741 349.021C136.512 348.695 156.205 342.982 172.834 352.355C189.953 362.005 203.984 379.815 208.313 400.075C212.437 419.379 196.718 436.8 195.091 456.53C193.321 478.002 210.65 502.69 198.443 519.786C186.424 536.617 160.641 526.455 141.496 531.588C123.421 536.434 107.213 554.229 89.2136 549.072C71.2051 543.912 64.5424 520.664 51.9136 505.922C38.7824 490.593 18.4168 480.85 13.4994 460.689C8.47008 440.068 16.9739 418.483 25.9518 399.477C34.6686 381.024 46.6448 363.669 63.7796 354.25C80.1937 345.227 99.31 349.341 117.741 349.021Z" fill="#0B0D28"/>
</g>
<g opacity="0.07" filter="url(#filter2_f_2039_542)">
<path fill-rule="evenodd" clip-rule="evenodd" d="M797.594 348.971C815.984 348.653 835.277 343.081 851.568 352.223C868.339 361.635 882.086 379.006 886.327 398.768C890.367 417.596 874.968 434.588 873.374 453.832C871.639 474.775 888.616 498.855 876.657 515.53C864.882 531.947 839.623 522.035 820.866 527.042C803.159 531.769 787.28 549.125 769.646 544.095C752.003 539.062 745.476 516.386 733.103 502.007C720.239 487.057 700.287 477.553 695.469 457.888C690.542 437.776 698.873 416.722 707.669 398.185C716.208 380.186 727.941 363.258 744.728 354.071C760.809 345.27 779.537 349.283 797.594 348.971Z" fill="#0B0D28"/>
</g>
<g opacity="0.07" filter="url(#filter3_f_2039_542)">
<path fill-rule="evenodd" clip-rule="evenodd" d="M635.888 202.061C655.04 201.728 675.133 195.903 692.1 205.461C709.566 215.3 723.882 233.461 728.299 254.121C732.507 273.805 716.469 291.569 714.809 311.688C713.003 333.583 730.683 358.758 718.228 376.19C705.965 393.354 679.659 382.991 660.125 388.226C641.684 393.167 625.147 411.312 606.781 406.053C588.407 400.792 581.609 377.086 568.724 362.053C555.326 346.423 534.547 336.488 529.53 315.929C524.398 294.902 533.075 272.891 542.235 253.511C551.129 234.695 563.348 216.997 580.831 207.392C597.578 198.192 617.083 202.387 635.888 202.061Z" fill="#0B0D28"/>
</g>
<defs>
<filter id="filter0_f_2039_542" x="1362" y="33.2925" width="758" height="714" filterUnits="userSpaceOnUse" color-interpolation-filters="sRGB">
<feFlood flood-opacity="0" result="BackgroundImageFix"/>
<feBlend mode="normal" in="SourceGraphic" in2="BackgroundImageFix" result="shape"/>
<feGaussianBlur stdDeviation="100" result="effect1_foregroundBlur_2039_542"/>
</filter>
<filter id="filter1_f_2039_542" x="-188" y="147" width="597" height="603" filterUnits="userSpaceOnUse" color-interpolation-filters="sRGB">
<feFlood flood-opacity="0" result="BackgroundImageFix"/>
<feBlend mode="normal" in="SourceGraphic" in2="BackgroundImageFix" result="shape"/>
<feGaussianBlur stdDeviation="100" result="effect1_foregroundBlur_2039_542"/>
</filter>
<filter id="filter2_f_2039_542" x="494" y="147" width="593" height="598" filterUnits="userSpaceOnUse" color-interpolation-filters="sRGB">
<feFlood flood-opacity="0" result="BackgroundImageFix"/>
<feBlend mode="normal" in="SourceGraphic" in2="BackgroundImageFix" result="shape"/>
<feGaussianBlur stdDeviation="100" result="effect1_foregroundBlur_2039_542"/>
</filter>
<filter id="filter3_f_2039_542" x="328" y="0" width="601" height="607" filterUnits="userSpaceOnUse" color-interpolation-filters="sRGB">
<feFlood flood-opacity="0" result="BackgroundImageFix"/>
<feBlend mode="normal" in="SourceGraphic" in2="BackgroundImageFix" result="shape"/>
<feGaussianBlur stdDeviation="100" result="effect1_foregroundBlur_2039_542"/>
</filter>
</defs>
</svg>
