<svg width="708" height="443" viewBox="0 0 708 443" fill="none" xmlns="http://www.w3.org/2000/svg">
<g opacity="0.2">
<path d="M213.462 551.579C204.58 516.745 208.334 439.263 294.411 408.005C380.488 376.747 405.662 302.908 407.489 269.895C408.693 237.521 424.203 172.665 476.611 172.234C529.019 171.803 540.447 110.833 539.609 80.4016C536.879 60.47 542.154 15.6307 585.102 -4.27346" stroke="#7D8087"/>
<path d="M200.647 541.775C191.765 506.941 195.519 429.459 281.596 398.201C367.673 366.943 392.847 293.104 394.674 260.091C395.878 227.717 411.388 162.861 463.796 162.43C516.204 161.999 527.632 101.029 526.794 70.5976C524.064 50.666 529.339 5.82677 572.287 -14.0774" stroke="#7D8087"/>
<path d="M187.832 531.97C178.949 497.136 182.704 419.654 268.781 388.396C354.858 357.138 380.032 283.299 381.859 250.286C383.063 217.912 398.572 153.056 450.981 152.625C503.389 152.194 514.816 91.2235 513.979 60.7925C511.248 40.8609 516.524 -3.97841 559.472 -23.8826" stroke="#7D8087"/>
<path d="M175.017 522.166C166.134 487.332 169.889 409.85 255.966 378.592C342.043 347.334 367.217 273.495 369.044 240.482C370.248 208.108 385.757 143.252 438.166 142.821C490.574 142.39 502.001 81.4196 501.164 50.9885C498.434 31.0569 503.709 -13.7824 546.657 -33.6866" stroke="#7D8087"/>
<path d="M162.202 512.361C153.319 477.527 157.074 400.045 243.151 368.787C329.228 337.529 354.402 263.69 356.229 230.677C357.433 198.303 372.942 133.447 425.351 133.016C477.759 132.585 489.186 71.6147 488.349 41.1836C485.618 21.252 490.894 -23.5873 533.842 -43.4915" stroke="#7D8087"/>
<path d="M149.387 502.557C140.504 467.723 144.259 390.241 230.336 358.983C316.413 327.725 341.586 253.886 343.414 220.873C344.617 188.499 360.127 123.643 412.535 123.212C464.944 122.781 476.371 61.8107 475.534 31.3796C472.803 11.448 478.079 -33.3912 521.026 -53.2954" stroke="#7D8087"/>
<path d="M136.572 492.752C127.689 457.918 131.444 380.436 217.521 349.178C303.598 317.921 328.772 244.081 330.599 211.069C331.802 178.695 347.312 113.838 399.72 113.407C452.129 112.976 463.556 52.006 462.719 21.5749C459.988 1.64332 465.264 -43.1959 508.211 -63.1001" stroke="#7D8087"/>
<path d="M123.757 482.947C114.874 448.113 118.628 370.631 204.706 339.373C290.783 308.116 315.956 234.276 317.783 201.264C318.987 168.89 334.497 104.033 386.905 103.602C439.314 103.171 450.741 42.2011 449.904 11.77C447.173 -8.16161 452.449 -53.0009 495.396 -72.9051" stroke="#7D8087"/>
</g>
</svg>
