<svg width="18" height="16" viewBox="0 0 18 16" fill="none" xmlns="http://www.w3.org/2000/svg">
<path d="M4.71131 1.04615e-07C3.55909 1.04615e-07 2.54704 0.794667 2.23455 1.94533L0.0998472 9.80933C-0.0120051 10.2218 -0.0301641 10.6555 0.0467945 11.0765C0.123753 11.4975 0.293736 11.8942 0.543409 12.2356C0.793083 12.577 1.11565 12.8538 1.48582 13.0443C1.85599 13.2347 2.26368 13.3337 2.67692 13.3333H15.3231C15.7363 13.3337 16.144 13.2347 16.5142 13.0443C16.8843 12.8538 17.2069 12.577 17.4566 12.2356C17.7063 11.8942 17.8762 11.4975 17.9532 11.0765C18.0302 10.6555 18.012 10.2218 17.9002 9.80933L15.7655 1.94533C15.6137 1.38539 15.2896 0.892243 14.8424 0.541039C14.3953 0.189835 13.8496 -0.000162758 13.2887 1.04615e-07H4.71131ZM3.47293 2.30667C3.54868 2.02657 3.7107 1.77985 3.93429 1.60412C4.15787 1.42839 4.43075 1.33329 4.71131 1.33333H13.2887C13.5693 1.33329 13.8421 1.42839 14.0657 1.60412C14.2893 1.77985 14.4513 2.02657 14.5271 2.30667L16.6618 10.1707C16.7198 10.3847 16.7291 10.6098 16.6892 10.8283C16.6492 11.0468 16.561 11.2527 16.4315 11.4299C16.3019 11.6071 16.1345 11.7508 15.9425 11.8497C15.7504 11.9486 15.5388 12 15.3244 12H2.67563C2.46117 12 2.24962 11.9486 2.05754 11.8497C1.86547 11.7508 1.6981 11.6071 1.56855 11.4299C1.439 11.2527 1.35078 11.0468 1.31082 10.8283C1.27087 10.6098 1.28025 10.3847 1.33823 10.1707L3.47293 2.30667ZM4.49527 14.6667C4.32474 14.6667 4.1612 14.7369 4.04061 14.8619C3.92003 14.987 3.85229 15.1565 3.85229 15.3333C3.85229 15.5101 3.92003 15.6797 4.04061 15.8047C4.1612 15.9298 4.32474 16 4.49527 16H13.5034C13.674 16 13.8375 15.9298 13.9581 15.8047C14.0787 15.6797 14.1464 15.5101 14.1464 15.3333C14.1464 15.1565 14.0787 14.987 13.9581 14.8619C13.8375 14.7369 13.674 14.6667 13.5034 14.6667H4.49527Z" fill="black"/>
</svg>
