<svg width="18" height="22" viewBox="0 0 18 22" fill="none" xmlns="http://www.w3.org/2000/svg">
<path d="M16.4764 18.5623C16.0018 18.5623 15.617 18.9471 15.617 19.4217C15.617 19.6613 15.5358 19.8629 15.3757 20.021C15.2077 20.1869 14.964 20.283 14.7255 20.2811C14.4903 20.2781 14.2993 20.198 14.1417 20.036L9.61579 15.3849C9.45401 15.2186 9.23186 15.1248 8.99991 15.1248C8.76797 15.1248 8.54582 15.2186 8.38404 15.3849L3.85806 20.036C3.70161 20.1968 3.50924 20.277 3.26999 20.2812C3.02893 20.2861 2.78629 20.1901 2.61944 20.0261C2.46239 19.8718 2.38277 19.6735 2.38277 19.4367V3.43746C2.38277 2.48974 3.1538 1.71871 4.10152 1.71871H13.8983C14.846 1.71871 15.617 2.48974 15.617 3.43746V15.1678C15.617 15.6424 16.0018 16.0272 16.4764 16.0272C16.951 16.0272 17.3358 15.6424 17.3358 15.1678V3.43746C17.3357 1.54206 15.7937 0 13.8983 0H4.10152C2.20608 0 0.664062 1.54206 0.664062 3.43746V19.4367C0.664062 20.1316 0.930727 20.7764 1.4149 21.2521C1.90019 21.7289 2.56835 22 3.25448 22C3.26973 22 3.28503 21.9999 3.30028 21.9996C3.99599 21.9874 4.61478 21.7229 5.08984 21.2346L8.99991 17.2164L12.91 21.2346C13.3885 21.7263 14.0088 21.9909 14.7038 21.9997C15.4014 22.0069 16.088 21.7331 16.5833 21.244C17.0685 20.7649 17.3357 20.1177 17.3357 19.4217C17.3358 18.9471 16.951 18.5623 16.4764 18.5623Z" fill="black"/>
</svg>
