<svg width="24" height="20" viewBox="0 0 24 20" fill="none" xmlns="http://www.w3.org/2000/svg">
<path d="M23.5549 3.45548C23.9212 3.89651 24.0685 4.4514 23.9703 5.01808L23.479 7.8551C23.4322 8.12567 23.3467 8.38111 23.2296 8.6172V17.4699C23.2296 18.865 22.1072 20 20.7277 20H3.27243C1.89292 20 0.770482 18.865 0.770482 17.4699V8.61739C0.653409 8.38131 0.567913 8.12587 0.521084 7.8552L0.0296715 5.01817C-0.0685526 4.4514 0.0789293 3.89661 0.444817 3.45588C0.81119 3.01505 1.32621 2.77238 1.89535 2.77238H7.08656V1.82874C7.08656 0.820346 7.8979 0 8.8951 0H15.1049C16.1021 0 16.9133 0.820444 16.9133 1.82874V2.77238H22.1045C22.6736 2.77238 23.1887 3.01495 23.5549 3.45548ZM8.44683 2.77228H15.5534V1.82864C15.5534 1.58293 15.3481 1.37533 15.1051 1.37533H8.8953C8.65222 1.37533 8.44693 1.58293 8.44693 1.82864L8.44683 2.77228ZM1.36944 4.78072L1.86086 7.61785C1.97909 8.30045 2.61546 8.81516 3.34112 8.81516H8.94932V8.75621C8.94932 8.10249 9.47522 7.57069 10.1217 7.57069H13.8784C14.5249 7.57069 15.0508 8.10249 15.0508 8.75621V8.81516H20.659C21.3847 8.81516 22.0211 8.30045 22.1393 7.61785L22.6306 4.78081C22.6599 4.61173 22.6227 4.47173 22.5134 4.34018C22.4044 4.20893 22.2744 4.14772 22.1046 4.14772H1.89535C1.72562 4.14772 1.59562 4.20893 1.48632 4.34048C1.37731 4.47173 1.3402 4.61183 1.36944 4.78072ZM10.3095 8.94602V10.0597H13.6907V8.94602H10.3095ZM21.8694 17.4698V9.92867C21.5005 10.0971 21.09 10.1905 20.659 10.1905H15.0508V10.2496C15.0508 10.9034 14.5249 11.4352 13.8784 11.4352H10.1217C9.47522 11.4352 8.94932 10.9034 8.94932 10.2496V10.1905H3.34102C2.91004 10.1905 2.49956 10.0971 2.13066 9.92867V17.4697C2.13066 18.1063 2.64276 18.6244 3.27243 18.6244H20.7276C21.3571 18.6244 21.8694 18.1065 21.8694 17.4698Z" fill="black"/>
</svg>
