<svg width="21" height="23" viewBox="0 0 21 23" fill="none" xmlns="http://www.w3.org/2000/svg">
<path d="M14.7184 11.0362C14.6597 10.9009 14.6193 10.7581 14.5983 10.612C14.5436 10.2323 14.4386 9.86104 14.2863 9.50835C14.2144 9.34194 14.0213 9.2652 13.8547 9.33717C13.6882 9.4091 13.6115 9.60235 13.6835 9.7688C13.8128 10.0682 13.9019 10.3833 13.9483 10.7055C13.9776 10.9094 14.0341 11.1086 14.116 11.2975L14.8287 12.941C15.1298 13.6351 15.0336 14.4071 14.5716 15.0062C14.1779 15.5166 13.5952 15.8008 12.969 15.8032C13.1505 15.4208 13.2525 14.9936 13.2525 14.5429V11.5213C13.2525 11.1551 12.9657 10.8606 12.5995 10.8509L10.7418 10.802C10.1082 10.7852 9.48865 10.5558 8.99708 10.1559L8.87481 10.0564C8.76071 9.96353 8.61738 9.92115 8.47107 9.93665C8.3248 9.95228 8.19363 10.0241 8.10174 10.139C7.61976 10.7412 7.35432 11.4975 7.35432 12.2688V14.5429C7.35432 14.9936 7.45629 15.4208 7.6378 15.8032C7.01166 15.8009 6.4289 15.5166 6.03527 15.0062C5.57317 14.4071 5.47703 13.6352 5.77806 12.941L6.4908 11.2976C6.57272 11.1086 6.62915 10.9094 6.65852 10.7055C6.78466 9.82895 7.22276 9.02677 7.89207 8.44686C8.56138 7.86695 9.41777 7.54757 10.3033 7.54757C11.3042 7.54757 12.2407 7.9426 12.9403 8.65994C13.0668 8.78983 13.2747 8.79233 13.4046 8.66576C13.5344 8.53919 13.537 8.33123 13.4104 8.20147C12.5861 7.3563 11.4827 6.89087 10.3033 6.89087C9.25976 6.89087 8.25068 7.2672 7.46202 7.95052C6.67337 8.63384 6.15711 9.57906 6.00848 10.612C5.98746 10.7581 5.94705 10.9009 5.8883 11.0362L5.17556 12.6797C4.77799 13.5964 4.90496 14.616 5.51525 15.4073C6.03729 16.0841 6.8107 16.4613 7.64165 16.4613C7.77352 16.4613 7.90705 16.4514 8.04106 16.4321C8.2727 16.709 8.55416 16.9427 8.87148 17.1197V17.7534L7.19264 18.4269C6.01636 18.8989 5.25629 20.0228 5.25629 21.2903V22.0927C5.25629 22.2741 5.40326 22.4211 5.58464 22.4211C5.76602 22.4211 5.91299 22.2741 5.91299 22.0927V21.2903C5.91299 20.2926 6.51129 19.4079 7.4372 19.0364L8.94836 18.4302C9.13709 18.9729 9.65343 19.3635 10.2596 19.3635C10.8657 19.3635 11.382 18.9728 11.5708 18.4302L13.0821 19.0365C13.1218 19.0524 13.1637 19.0708 13.214 19.0945C13.2592 19.1158 13.3068 19.1258 13.3536 19.1258C13.4768 19.1258 13.595 19.0561 13.651 18.9371C13.7281 18.7731 13.6576 18.5774 13.4936 18.5003C13.4314 18.471 13.3782 18.4477 13.3265 18.427L11.6477 17.7534V17.1664C12.0009 16.9846 12.313 16.7342 12.5657 16.4321C12.6997 16.4514 12.8331 16.4613 12.9651 16.4613C13.796 16.4613 14.5695 16.0841 15.0915 15.4073C15.7017 14.6161 15.8287 13.5964 15.4312 12.6797L14.7184 11.0362ZM10.991 17.9755C10.991 18.3788 10.6629 18.7069 10.2596 18.7069C9.85631 18.7069 9.52822 18.3788 9.52822 17.9755V17.3878C9.77541 17.4553 10.0352 17.492 10.3034 17.492C10.5402 17.492 10.7702 17.4632 10.991 17.4102V17.9755ZM10.3034 16.8353C9.03942 16.8353 8.01107 15.8069 8.01107 14.543V12.2689C8.01107 11.6829 8.20081 11.1076 8.54742 10.6367L8.58266 10.6654C9.18613 11.1563 9.94676 11.4379 10.7245 11.4584L12.5821 11.5074C12.5898 11.5076 12.5958 11.5137 12.5958 11.5213V14.543C12.5957 15.8069 11.5674 16.8353 10.3034 16.8353Z" fill="#34A853"/>
<path d="M14.2383 19.4296C14.0903 19.5343 14.0552 19.7393 14.16 19.8872C14.4523 20.3002 14.6068 20.7853 14.6068 21.2902V22.0927C14.6068 22.2741 14.7538 22.421 14.9352 22.421C15.1166 22.421 15.2635 22.2741 15.2635 22.0927V21.2902C15.2635 20.6487 15.0673 20.0323 14.696 19.5078C14.5912 19.3598 14.3863 19.3247 14.2383 19.4296Z" fill="#34A853"/>
<path d="M4.09812 4.91756C3.36668 4.41777 2.45177 4.32421 1.58781 4.66127C0.957596 4.90706 0.45373 5.40772 0.205235 6.03483C0.0435547 6.44299 -0.0231662 6.86039 0.00708582 7.27547C0.0203074 7.45633 0.17704 7.5924 0.358421 7.57913C0.539277 7.56595 0.675214 7.40865 0.66208 7.2278C0.639095 6.91218 0.6908 6.5922 0.815792 6.27676C0.997304 5.81864 1.36571 5.45286 1.8265 5.2731C2.48513 5.0162 3.17812 5.08423 3.72765 5.45978C4.26474 5.82674 4.58535 6.43358 4.58535 7.08301C4.58535 7.49061 4.46167 7.88139 4.22771 8.21328C4.22499 8.21714 4.22237 8.22108 4.21978 8.22502L3.11657 9.94251C3.08259 9.99549 3.06451 10.057 3.06451 10.12V10.2695H2.94933V8.62574C3.28284 8.59579 3.54518 8.31507 3.54518 7.9739V7.43509C3.54518 7.07404 3.25141 6.78027 2.89036 6.78027H2.35155C1.9905 6.78027 1.69674 7.07404 1.69674 7.43509V7.9739C1.69674 8.31503 1.95911 8.59579 2.29258 8.62574V10.2696H2.1774V10.12C2.1774 10.0571 2.15932 9.99553 2.12534 9.94256L1.12138 8.37956C1.0234 8.22699 0.820257 8.18277 0.66764 8.28075C0.51511 8.37873 0.470848 8.58191 0.568828 8.73449L1.5207 10.2164V10.4516C1.5207 10.5455 1.54845 10.6329 1.59569 10.7067V11.0467C1.59569 11.5749 2.02544 12.0047 2.55373 12.0047H2.68814C3.21639 12.0047 3.64618 11.5749 3.64618 11.0467V10.7067C3.69341 10.6329 3.72117 10.5455 3.72117 10.4516V10.2164L4.76861 8.58572C5.07831 8.14381 5.242 7.62436 5.242 7.08306C5.242 6.21652 4.8144 5.40702 4.09812 4.91756ZM2.88843 7.43509L2.89053 7.97201L2.6384 7.97289C2.63258 7.97258 2.6268 7.97201 2.62089 7.97201C2.6141 7.97201 2.60745 7.97263 2.60079 7.97302L2.35339 7.9739L2.35151 7.43698L2.88843 7.43509ZM2.98947 11.0466C2.98947 11.2128 2.85428 11.3479 2.68814 11.3479H2.55373C2.38759 11.3479 2.25239 11.2128 2.25239 11.0466V10.9262H2.98947V11.0466Z" fill="#34A853"/>
<path d="M10.2608 5.83006C11.8681 5.83006 13.1758 4.5224 13.1758 2.91501C13.1758 1.30767 11.8681 0 10.2608 0C8.65337 0 7.3457 1.30767 7.3457 2.91501C7.3457 4.5224 8.65337 5.83006 10.2608 5.83006ZM10.2608 0.656701C11.506 0.656701 12.5191 1.66977 12.5191 2.91501C12.5191 4.16025 11.506 5.17336 10.2608 5.17336C9.01552 5.17336 8.0024 4.16025 8.0024 2.91501C8.0024 1.66977 9.01552 0.656701 10.2608 0.656701Z" fill="#34A853"/>
<path d="M9.68397 4.01074C9.74806 4.07484 9.83212 4.10688 9.91614 4.10688C10.0002 4.10688 10.0842 4.07484 10.1483 4.01074L11.6823 2.47678C11.8105 2.3485 11.8105 2.14063 11.6823 2.0124C11.554 1.88421 11.3462 1.88421 11.2179 2.0124L9.91618 3.3142L9.69527 3.09333C9.56708 2.96514 9.35917 2.9651 9.23093 3.09338C9.1027 3.22161 9.1027 3.42952 9.23098 3.55771L9.68397 4.01074Z" fill="#34A853"/>
<path d="M20.5882 6.53105C20.5275 6.34415 20.369 6.21058 20.1746 6.1823L18.81 5.98402L18.1998 4.74745C18.1128 4.57132 17.9368 4.46191 17.7404 4.46191C17.544 4.46191 17.368 4.57132 17.281 4.74745L16.6708 5.98402L15.3061 6.1823C15.1117 6.21058 14.9533 6.34415 14.8926 6.53101C14.8319 6.71781 14.8816 6.91899 15.0223 7.05606L16.0097 8.01857L15.7766 9.37772C15.7434 9.57131 15.8216 9.76329 15.9804 9.8787C16.1393 9.99419 16.346 10.0091 16.5199 9.9177L17.7404 9.27602L18.961 9.9177C19.0366 9.95746 19.1185 9.97707 19.1998 9.97707C19.3056 9.97707 19.4107 9.94388 19.5005 9.87865C19.6594 9.76316 19.7375 9.57123 19.7042 9.37768L19.4711 8.01861L20.4585 7.0561C20.5991 6.91903 20.6489 6.71782 20.5882 6.53105ZM18.9584 7.60125C18.8376 7.71893 18.7825 7.88845 18.811 8.05473L19.0074 9.20023L17.9788 8.65942C17.9041 8.62019 17.8223 8.60053 17.7404 8.60053C17.6585 8.60053 17.5766 8.62015 17.502 8.65938L16.4733 9.20023L16.6697 8.05464C16.6982 7.88841 16.6431 7.71889 16.5224 7.6013L15.6902 6.7901L16.8404 6.62299C17.0073 6.59865 17.1515 6.49388 17.226 6.34275L17.7403 5.30052L18.2546 6.34258C18.3292 6.49384 18.4734 6.59865 18.6404 6.62294L19.7905 6.79005L18.9584 7.60125Z" fill="#34A853"/>
<path d="M13.7423 4.21202C14.2434 4.40745 14.7288 4.64684 15.1913 4.9248C15.0467 4.9927 14.9694 5.15754 15.0164 5.31528C15.0588 5.45778 15.1894 5.54994 15.3309 5.54994C15.362 5.54994 15.3935 5.54547 15.4248 5.53619L16.0468 5.35091C16.186 5.3095 16.2814 5.18148 16.2814 5.03622V4.36341C16.2814 4.18203 16.1345 4.03506 15.9531 4.03506C15.7717 4.03506 15.6247 4.18203 15.6247 4.36341V4.42015C15.1022 4.09823 14.5511 3.82259 13.981 3.60019C13.812 3.53426 13.6216 3.61779 13.5557 3.78678C13.4899 3.95573 13.5734 4.14609 13.7423 4.21202Z" fill="#34A853"/>
<path d="M5.07867 5.0205C5.13729 5.0205 5.19666 5.00483 5.25025 4.9719C5.5568 4.78356 5.876 4.61186 6.2022 4.45906L6.18513 4.52298C6.13828 4.69815 6.24235 4.87813 6.41756 4.92501C6.44592 4.93259 6.47447 4.93622 6.50253 4.93622C6.64753 4.93622 6.78032 4.83934 6.81954 4.69259L7.02006 3.94228C7.06471 3.77535 6.97225 3.60233 6.80864 3.54669L6.20693 3.34188C6.0354 3.2833 5.84872 3.3752 5.79032 3.54695C5.74807 3.67102 5.78458 3.80258 5.87276 3.88821C5.54187 4.04543 5.21807 4.22099 4.90653 4.41239C4.75203 4.50735 4.7037 4.70953 4.79861 4.86403C4.8606 4.9649 4.96835 5.0205 5.07867 5.0205Z" fill="#34A853"/>
</svg>
