<svg width="26" height="20" viewBox="0 0 26 20" fill="none" xmlns="http://www.w3.org/2000/svg">
<path d="M25.9484 9.69091C24.929 6.92514 23.1593 4.53329 20.8581 2.81099C18.5569 1.08869 15.825 0.11143 13 0C10.175 0.11143 7.44311 1.08869 5.14189 2.81099C2.84066 4.53329 1.071 6.92514 0.0516328 9.69091C-0.0172109 9.89064 -0.0172109 10.1094 0.0516328 10.3091C1.071 13.0749 2.84066 15.4667 5.14189 17.189C7.44311 18.9113 10.175 19.8886 13 20C15.825 19.8886 18.5569 18.9113 20.8581 17.189C23.1593 15.4667 24.929 13.0749 25.9484 10.3091C26.0172 10.1094 26.0172 9.89064 25.9484 9.69091ZM13 18.1818C8.40654 18.1818 3.55307 14.6091 1.79368 10C3.55307 5.39091 8.40654 1.81818 13 1.81818C17.5935 1.81818 22.4469 5.39091 24.2063 10C22.4469 14.6091 17.5935 18.1818 13 18.1818Z" fill="black"/>
<path d="M13 5C12.0111 5 11.0444 5.29325 10.2222 5.84265C9.3999 6.39206 8.75904 7.17295 8.3806 8.08658C8.00217 9.00021 7.90315 10.0055 8.09608 10.9755C8.289 11.9454 8.76521 12.8363 9.46447 13.5355C10.1637 14.2348 11.0546 14.711 12.0245 14.9039C12.9945 15.0969 13.9998 14.9978 14.9134 14.6194C15.827 14.241 16.6079 13.6001 17.1573 12.7778C17.7068 11.9556 18 10.9889 18 10C18 8.67392 17.4732 7.40215 16.5355 6.46447C15.5979 5.52678 14.3261 5 13 5ZM13 13.3333C12.3407 13.3333 11.6963 13.1378 11.1481 12.7716C10.5999 12.4053 10.1727 11.8847 9.9204 11.2756C9.66811 10.6665 9.6021 9.9963 9.73072 9.3497C9.85933 8.70309 10.1768 8.10915 10.643 7.64298C11.1092 7.1768 11.7031 6.85933 12.3497 6.73072C12.9963 6.6021 13.6665 6.66811 14.2756 6.9204C14.8847 7.17269 15.4053 7.59994 15.7716 8.1481C16.1378 8.69626 16.3333 9.34073 16.3333 10C16.3333 10.8841 15.9821 11.7319 15.357 12.357C14.7319 12.9821 13.8841 13.3333 13 13.3333Z" fill="black"/>
</svg>
