<svg width="18" height="21" viewBox="0 0 18 21" fill="none" xmlns="http://www.w3.org/2000/svg">
<path d="M11.186 1.00397V4.59997C11.186 5.08697 11.38 5.55497 11.726 5.89997C12.0729 6.24534 12.5425 6.43915 13.032 6.43897H17.157" stroke="black" stroke-width="1.5" stroke-linecap="round" stroke-linejoin="round"/>
<path d="M17.25 6.81896V15.387C17.2301 15.9474 17.0995 16.4983 16.8657 17.008C16.632 17.5178 16.2997 17.9762 15.888 18.357C15.0556 19.1291 13.9506 19.5392 12.816 19.497H5.226C4.66071 19.5231 4.09581 19.4373 3.56381 19.2444C3.0318 19.0515 2.54316 18.7553 2.126 18.373C1.71049 17.991 1.37491 17.5305 1.13871 17.0179C0.902508 16.5053 0.770386 15.951 0.75 15.387V5.11296C0.769854 4.55254 0.900422 4.00158 1.13418 3.49185C1.36794 2.98211 1.70026 2.52368 2.112 2.14296C2.94442 1.3708 4.04937 0.960753 5.184 1.00296H10.898C11.7702 1.00017 12.6121 1.32288 13.259 1.90796L16.219 4.62996C16.5348 4.90208 16.7898 5.23762 16.9674 5.61475C17.1451 5.99189 17.2413 6.40218 17.25 6.81896Z" stroke="black" stroke-width="1.5" stroke-linecap="round" stroke-linejoin="round"/>
<path d="M9 8.74997V15.524" stroke="black" stroke-width="1.5" stroke-miterlimit="10" stroke-linecap="round"/>
<path d="M12.106 11.601L9.44104 8.93596C9.38338 8.8776 9.31471 8.83128 9.23901 8.79966C9.1633 8.76804 9.08208 8.75175 9.00004 8.75175C8.918 8.75175 8.83678 8.76804 8.76108 8.79966C8.68538 8.83128 8.61671 8.8776 8.55904 8.93596L5.89404 11.602" stroke="black" stroke-width="1.5" stroke-linecap="round" stroke-linejoin="round"/>
</svg>
