<svg width="24" height="24" viewBox="0 0 24 24" fill="none" xmlns="http://www.w3.org/2000/svg">
<path d="M9.19077 12.3728C9.31405 12.3728 9.42838 12.3082 9.49194 12.2025L10.1262 11.149L10.9667 12.4846C11.0324 12.5891 11.1472 12.6511 11.2716 12.6488C11.395 12.6463 11.508 12.5791 11.5693 12.472L12.9224 10.1078L14.7396 13.4195C14.8003 13.53 14.9155 13.5997 15.0416 13.6019C15.0437 13.6019 15.0458 13.602 15.0478 13.602C15.1715 13.602 15.2864 13.5368 15.3499 13.4303L16.482 11.5297H19.2121C19.4063 11.5297 19.5637 11.3723 19.5637 11.1781C19.5637 10.984 19.4063 10.8266 19.2121 10.8266H16.2823C16.1584 10.8266 16.0436 10.8918 15.9802 10.9982L15.0604 12.5424L13.2371 9.21961C13.1758 9.10809 13.0592 9.03834 12.932 9.03717C12.9309 9.03717 12.9299 9.03717 12.9288 9.03717C12.8028 9.03717 12.6864 9.10462 12.6237 9.21408L11.2499 11.6145L10.4171 10.2912C10.3527 10.1889 10.2403 10.1269 10.1195 10.1269C10.1184 10.1269 10.1173 10.1269 10.1161 10.1269C9.99402 10.1281 9.88133 10.1925 9.81838 10.2971L8.99207 11.6697H6.99402C6.79986 11.6697 6.64246 11.8271 6.64246 12.0212C6.64246 12.2154 6.79986 12.3728 6.99402 12.3728H9.19077Z" fill="black"/>
<path d="M19.8326 2.61539C19.6385 2.61539 19.4811 2.77279 19.4811 2.96695V4.00401H18.4441C18.2499 4.00401 18.0925 4.16142 18.0925 4.35557C18.0925 4.54973 18.2499 4.70714 18.4441 4.70714H19.4811V5.74425C19.4811 5.9384 19.6385 6.09581 19.8326 6.09581C20.0268 6.09581 20.1842 5.9384 20.1842 5.74425V4.70714H21.2212C21.4153 4.70714 21.5727 4.54973 21.5727 4.35557C21.5727 4.16142 21.4153 4.00401 21.2212 4.00401H20.1842V2.96695C20.1842 2.77279 20.0268 2.61539 19.8326 2.61539Z" fill="black"/>
<path d="M21.0731 14.6606C22.7859 12.8295 23.2768 10.0607 22.3353 7.68693C23.3456 6.92549 24 5.7156 24 4.35557C24 2.05752 22.1305 0.187958 19.8326 0.187958C18.8887 0.187958 17.9644 0.511911 17.2298 1.10015C17.0783 1.2215 17.0538 1.44275 17.1752 1.5943C17.2965 1.7458 17.5178 1.77032 17.6693 1.64896C18.2885 1.15311 19.0365 0.891083 19.8326 0.891083C21.7427 0.891083 23.2968 2.44527 23.2968 4.35557C23.2968 6.26666 21.7428 7.82141 19.8326 7.82141C18.054 7.82141 16.5848 6.47432 16.3897 4.74693C16.3893 4.74294 16.3887 4.73891 16.3882 4.73488C16.3745 4.61024 16.367 4.48377 16.367 4.35557C16.367 3.81294 16.4889 3.29404 16.7293 2.81319C16.8161 2.63952 16.7457 2.42835 16.572 2.34149C16.3982 2.25472 16.1872 2.32508 16.1003 2.49871C15.8107 3.07804 15.6638 3.70279 15.6638 4.35552C15.6638 4.41458 15.6654 4.47327 15.6678 4.53177C14.7801 4.84907 13.9515 5.37093 13.2571 6.05385L12.8685 6.43588C12.8666 6.434 12.8652 6.4326 12.8633 6.43072L12.4813 6.05432C11.2452 4.83557 9.62709 4.15447 8.04131 4.18729C6.72178 4.21447 5.55412 4.7315 4.66491 5.68213C4.53225 5.82416 4.53975 6.04682 4.68178 6.17947C4.82381 6.31166 5.046 6.30463 5.17866 6.1626C5.93522 5.35354 6.92991 4.91338 8.05584 4.89041C9.45272 4.86182 10.8857 5.46885 11.9877 6.55494L12.3702 6.93182C12.5549 7.11369 12.7124 7.20416 12.8694 7.20416C13.0251 7.20416 13.1802 7.1151 13.3616 6.93697L13.7502 6.55494C14.3341 5.98101 15.0229 5.5341 15.7602 5.24746C16.1698 7.11908 17.84 8.52449 19.8325 8.52449C20.5147 8.52449 21.1591 8.35968 21.728 8.06774C22.507 10.1631 22.0597 12.5736 20.5621 14.1772L15.5152 19.3434L15.0975 19.425C14.9962 19.4447 14.9067 19.4625 14.8252 19.4789C14.2955 19.5862 14.1689 19.6116 13.5487 19.5159L10.5417 18.9661C10.132 18.8245 10.1733 18.4983 10.1962 18.4003C10.2323 18.248 10.3739 18.0019 10.6781 18.0478C10.6809 18.0483 10.6838 18.0487 10.6866 18.0492C10.822 18.0666 10.9673 18.0853 11.1192 18.1045C11.6888 18.1781 12.3337 18.2611 12.9066 18.3197C14.0784 18.4383 14.7413 17.8233 14.8791 17.1605C15.0192 16.485 14.6344 15.5869 13.4578 15.2114C13.4438 15.2072 13.4292 15.2034 13.4142 15.2006L11.4778 14.8453C10.4269 14.6526 9.60938 14.8012 8.37188 15.0262C8.04469 15.0858 7.67344 15.1528 7.26 15.2208L6.34219 15.3717L6.05953 15.0825L5.17594 14.1778C3.52453 12.4073 3.15844 9.63421 4.28719 7.43249C4.37578 7.25999 4.30734 7.04811 4.13484 6.95952C3.96187 6.87093 3.75 6.9389 3.66141 7.11186C2.39953 9.57374 2.81203 12.6778 4.665 14.6606C4.66687 14.6625 4.66875 14.6644 4.67016 14.6662L5.49516 15.5109L3.95869 15.7635V15.7234C3.95869 15.4519 3.7192 15.2311 3.42483 15.2311H0.5325C0.238875 15.2311 0 15.4519 0 15.7234V21.9092C0 22.1807 0.238875 22.4015 0.5325 22.4015H3.42488C3.71925 22.4015 3.95873 22.1807 3.95873 21.9092V21.8666L7.12031 22.7269L10.0387 23.52C10.7048 23.7267 11.2416 23.812 11.7314 23.812C12.5067 23.812 13.1653 23.5992 14.0353 23.318C14.1127 23.2931 14.1919 23.2673 14.2734 23.2411L20.0245 21.397C20.6911 21.1833 21.1655 20.7033 21.293 20.1131C21.3919 19.6556 21.2541 19.2037 20.9241 18.9042C20.6569 18.6619 20.0288 18.3141 18.818 18.697L16.7302 19.1053L21.068 14.6662C21.0698 14.6644 21.0712 14.6625 21.0731 14.6606ZM0.703125 21.6984V15.9342H3.25556V16.1757C3.25556 16.1765 3.25547 16.1772 3.25547 16.1779V21.4063C3.25547 21.4068 3.25556 21.4071 3.25556 21.4076V21.6984H0.703125ZM19.0125 19.373C19.6613 19.1648 20.1858 19.1836 20.452 19.425C20.5955 19.5553 20.6517 19.7522 20.6058 19.9641C20.5317 20.3058 20.2341 20.5912 19.8098 20.7272L14.0583 22.5717C13.9762 22.598 13.8966 22.6237 13.8187 22.6491C12.443 23.0934 11.7525 23.317 10.2413 22.8469C10.2375 22.8455 10.2333 22.8445 10.2291 22.8431L3.95869 21.1378V16.4761L7.37391 15.915C7.79297 15.8461 8.1675 15.7776 8.49797 15.7176C9.70031 15.4992 10.4264 15.3675 11.3508 15.5372L13.2647 15.8883C14.0109 16.1334 14.2683 16.6439 14.1905 17.0175C14.1009 17.4492 13.6247 17.6859 12.9778 17.6203C12.4144 17.5626 11.7741 17.4801 11.2092 17.4075C11.0583 17.3878 10.9134 17.3691 10.7789 17.3522C10.1067 17.2528 9.63281 17.723 9.51188 18.24C9.48609 18.3501 9.47578 18.4673 9.48328 18.5855C9.50906 19.013 9.76453 19.4564 10.3477 19.6425C10.3622 19.6472 10.5562 19.6833 10.5562 19.6833L13.4273 20.2083C13.4302 20.2087 13.4334 20.2092 13.4367 20.2097C14.0292 20.302 14.2856 20.2941 14.6489 20.2298C14.7441 20.213 15.1322 20.1342 15.232 20.115L15.8648 19.9912C15.8648 19.9912 18.9994 19.3772 19.0125 19.373Z" fill="black"/>
</svg>
