<svg width="18" height="16" viewBox="0 0 18 16" fill="none" xmlns="http://www.w3.org/2000/svg">
<path fill-rule="evenodd" clip-rule="evenodd" d="M5.25 6.75H1.5C1.1686 6.74962 0.850875 6.6178 0.616537 6.38346C0.382199 6.14913 0.25038 5.8314 0.25 5.5V1.75C0.25038 1.4186 0.382199 1.10087 0.616537 0.866537C0.850875 0.632199 1.1686 0.50038 1.5 0.5H5.25C5.5814 0.50038 5.89913 0.632199 6.13346 0.866537C6.3678 1.10087 6.49962 1.4186 6.5 1.75V5.5C6.49962 5.8314 6.3678 6.14913 6.13346 6.38346C5.89913 6.6178 5.5814 6.74962 5.25 6.75ZM1.5 1.75V5.5H5.25075L5.25 1.75H1.5ZM9 3H17.75V4.25H9V3ZM9 11.75H17.75V13H9V11.75ZM1.5 15.5H5.25C5.5814 15.4996 5.89913 15.3678 6.13346 15.1335C6.3678 14.8991 6.49962 14.5814 6.5 14.25V10.5C6.49962 10.1686 6.3678 9.85087 6.13346 9.61654C5.89913 9.3822 5.5814 9.25038 5.25 9.25H1.5C1.1686 9.25038 0.850875 9.3822 0.616537 9.61654C0.382199 9.85087 0.25038 10.1686 0.25 10.5V14.25C0.25038 14.5814 0.382199 14.8991 0.616537 15.1335C0.850875 15.3678 1.1686 15.4996 1.5 15.5ZM1.5 14.25V10.5H5.25L5.25075 14.25H1.5Z" fill="#0B0D28"/>
</svg>
