<svg width="21" height="21" viewBox="0 0 21 21" fill="none" xmlns="http://www.w3.org/2000/svg">
<g clip-path="url(#clip0_550_1252)">
<path d="M15.1876 18.4492C15.1876 18.6489 15.0158 18.8262 14.8106 18.8262C14.5945 18.8262 14.4336 18.6489 14.4336 18.4492C14.4336 18.2442 14.5945 18.0722 14.8106 18.0722C15.0158 18.0722 15.1876 18.2442 15.1876 18.4492ZM15.0767 17.4625C15.0767 17.6121 14.9158 17.6731 14.805 17.6731C14.6609 17.6731 14.5334 17.6121 14.5334 17.4625C14.5334 16.7307 14.4613 15.755 14.4613 15.0232C14.4613 14.8291 14.611 14.7183 14.805 14.7183C14.9936 14.7183 15.1544 14.8291 15.1544 15.0232C15.1544 15.755 15.0767 16.7307 15.0767 17.4625Z" fill="#34A853"/>
<path d="M19.056 16.7311C19.056 14.3772 17.1411 12.4623 14.7872 12.4623C14.3093 12.4623 13.8496 12.5413 13.4203 12.6868C13.1811 12.4167 12.9137 12.1722 12.623 11.9584C12.5496 11.9044 12.4735 11.8516 12.3966 11.8013L12.3925 11.7987L10.3423 10.5L12.3925 9.20126L12.3965 9.1987C13.8405 8.25262 14.7025 6.65717 14.7025 4.93084V2.40053H14.8752C15.3078 2.40053 15.6598 2.04853 15.6598 1.61579V0.784582C15.6598 0.351997 15.3078 0 14.8752 0H2.71232C2.27973 0 1.92773 0.351997 1.92773 0.784582V1.61595C1.92773 2.04853 2.27973 2.40053 2.71232 2.40053H2.88503V4.93084C2.88503 6.65717 3.74716 8.25262 5.19103 9.1987L5.19504 9.20142L7.24534 10.5L5.19504 11.7987L5.19103 11.8013C3.74716 12.7473 2.88503 14.3428 2.88503 16.0691V18.5994H2.71232C2.27973 18.5994 1.92773 18.9514 1.92773 19.3842V20.2154C1.92773 20.648 2.27973 21 2.71232 21H14.8752C14.8965 21 14.9181 20.999 14.9399 20.9972C17.2233 20.9166 19.056 19.0339 19.056 16.7311ZM2.54297 1.61579V0.784582C2.54297 0.691176 2.61891 0.615233 2.71232 0.615233H14.8752C14.9686 0.615233 15.0445 0.691176 15.0445 0.784582V1.61595C15.0445 1.70935 14.9686 1.7853 14.8752 1.7853H2.71232C2.61891 1.7853 2.54297 1.70935 2.54297 1.61579ZM5.52621 8.6828C4.54055 8.03616 3.86348 7.04506 3.61049 5.92354H4.96529C5.13528 5.92354 5.2729 5.78575 5.2729 5.61592C5.2729 5.44593 5.13528 5.30831 4.96529 5.30831H3.51613C3.50571 5.1835 3.50042 5.05757 3.50042 4.93084V2.40053H14.0872V4.93084C14.0872 5.05757 14.082 5.1835 14.0715 5.30831H6.19575C6.02592 5.30831 5.88814 5.44593 5.88814 5.61592C5.88814 5.78575 6.02592 5.92354 6.19575 5.92354H13.977C13.7242 7.04522 13.0471 8.03616 12.0613 8.6828L10.0006 9.98825C9.91775 10.0406 9.85078 10.1105 9.80288 10.1916H7.78479C7.73688 10.1105 7.66975 10.0406 7.58692 9.98825L5.52621 8.6828ZM2.71232 20.3847C2.61891 20.3847 2.54297 20.3088 2.54297 20.2154V19.384C2.54297 19.2906 2.61891 19.2147 2.71232 19.2147H10.2464C10.4164 19.2147 10.554 19.0769 10.554 18.907C10.554 18.7372 10.4164 18.5994 10.2464 18.5994H3.50026V17.2635H9.60101C9.77084 17.2635 9.90862 17.1259 9.90862 16.9559C9.90862 16.7861 9.77084 16.6483 9.60101 16.6483H3.50026V16.0691C3.50026 14.5517 4.25761 13.1493 5.52621 12.3172L7.58692 11.0117C7.67023 10.959 7.73768 10.8885 7.78575 10.8068H9.80192C9.84982 10.8885 9.91727 10.959 10.0006 11.0117L12.0613 12.317C12.1283 12.3611 12.1946 12.407 12.2585 12.4541C12.4588 12.6014 12.6464 12.7651 12.8194 12.9434C11.4533 13.6561 10.5184 15.0865 10.5184 16.7311C10.5184 18.2784 11.3458 19.6359 12.5814 20.3847H2.71232ZM14.9266 20.3822C14.9226 20.3822 14.7928 20.3847 14.7872 20.3847C12.7727 20.3847 11.1336 18.7457 11.1336 16.7311C11.1336 14.7166 12.7727 13.0775 14.7872 13.0775C16.8018 13.0775 18.4408 14.7166 18.4408 16.7311C18.4408 18.6991 16.8768 20.3086 14.9266 20.3822Z" fill="#34A853"/>
<path d="M14.7865 13.5637C13.0401 13.5637 11.6191 14.9847 11.6191 16.731C11.6191 18.4776 13.0401 19.8984 14.7865 19.8984C16.533 19.8984 17.9538 18.4776 17.9538 16.731C17.9538 14.9847 16.533 13.5637 14.7865 13.5637ZM14.7865 19.2831C13.3793 19.2831 12.2344 18.1382 12.2344 16.731C12.2344 15.3239 13.3793 14.179 14.7865 14.179C16.1937 14.179 17.3386 15.3239 17.3386 16.731C17.3386 18.1382 16.1937 19.2831 14.7865 19.2831Z" fill="#34A853"/>
</g>
<defs>
<clipPath id="clip0_550_1252">
<rect width="21" height="21" fill="white"/>
</clipPath>
</defs>
</svg>
