<svg width="20" height="27" viewBox="0 0 20 27" fill="none" xmlns="http://www.w3.org/2000/svg">
<path d="M10 1C14.9688 1 19 4.719 19 9.29945C19 14.5699 13 22.9221 10.7969 25.8069C10.7054 25.9287 10.5856 26.0277 10.4471 26.0961C10.3086 26.1644 10.1554 26.2 10 26.2C9.84461 26.2 9.69141 26.1644 9.55292 26.0961C9.41443 26.0277 9.29457 25.9287 9.20312 25.8069C7 22.9233 1 14.5741 1 9.29945C1 4.719 5.03125 1 10 1Z" stroke="black" stroke-linecap="round" stroke-linejoin="round"/>
<path d="M9.99998 11.8C8.01175 11.8 6.39998 10.5912 6.39998 9.09999C6.39998 7.60883 8.01175 6.39999 9.99998 6.39999C11.9882 6.39999 13.6 7.60883 13.6 9.09999C13.6 10.5912 11.9882 11.8 9.99998 11.8Z" stroke="black" stroke-linecap="round" stroke-linejoin="round"/>
</svg>
