<svg width="21" height="21" viewBox="0 0 21 21" fill="none" xmlns="http://www.w3.org/2000/svg">
<path d="M13.8571 15.2857V18.1429C13.8571 18.5217 13.7066 18.8851 13.4387 19.153C13.1708 19.4209 12.8075 19.5714 12.4286 19.5714H2.42857C2.04969 19.5714 1.68633 19.4209 1.41842 19.153C1.15051 18.8851 1 18.5217 1 18.1429V2.42857C1 2.04969 1.15051 1.68633 1.41842 1.41842C1.68633 1.15051 2.04969 1 2.42857 1H12.4286C12.8075 1 13.1708 1.15051 13.4387 1.41842C13.7066 1.68633 13.8571 2.04969 13.8571 2.42857V5.28571M9.57143 10.2857H19.5714M19.5714 10.2857L16.7143 7.42857M19.5714 10.2857L16.7143 13.1429" stroke="black" stroke-linecap="round" stroke-linejoin="round"/>
</svg>
