<svg width="16" height="16" viewBox="0 0 16 16" fill="none" xmlns="http://www.w3.org/2000/svg">
<path d="M11.1493 10.5758L11.5293 10.1983L10.6468 9.31167L10.2685 9.68917L11.1493 10.5758ZM12.8035 10.04L14.396 10.9058L14.9918 9.80751L13.4001 8.94251L12.8035 10.04ZM14.7018 12.6258L13.5185 13.8033L14.3993 14.6892L15.5826 13.5125L14.7018 12.6258ZM12.7968 14.1817C11.5885 14.295 8.46348 14.1942 5.07848 10.8292L4.19681 11.715C7.89014 15.3875 11.406 15.5675 12.9135 15.4267L12.7968 14.1817ZM5.07848 10.8292C1.85264 7.62084 1.31764 4.92334 1.25098 3.75251L0.00264452 3.82334C0.0859778 5.29667 0.748478 8.28667 4.19681 11.715L5.07848 10.8292ZM6.22431 5.67917L6.46348 5.44084L5.58348 4.55501L5.34431 4.79251L6.22431 5.67917ZM6.65348 2.41167L5.60348 1.00834L4.60264 1.75834L5.65264 3.16084L6.65348 2.41167ZM2.06931 0.702507L0.760978 2.00251L1.64264 2.88917L2.95014 1.58917L2.06931 0.702507ZM5.78431 5.23584C5.34264 4.79251 5.34264 4.79251 5.34264 4.79417H5.34098L5.33848 4.79751C5.29913 4.83766 5.26369 4.88147 5.23264 4.92834C5.18764 4.99501 5.13848 5.08251 5.09681 5.19334C4.99534 5.47944 4.97006 5.78702 5.02348 6.08584C5.13514 6.80667 5.63181 7.75917 6.90348 9.02417L7.78514 8.13751C6.59431 6.95417 6.31098 6.23417 6.25848 5.89417C6.23348 5.73251 6.25931 5.65251 6.26681 5.63417C6.27098 5.62251 6.27264 5.62167 6.26681 5.62917C6.25946 5.64073 6.2511 5.65161 6.24181 5.66167L6.23348 5.67001C6.23078 5.6726 6.228 5.6751 6.22514 5.67751L5.78431 5.23584ZM6.90348 9.02417C8.17598 10.2892 9.13348 10.7825 9.85514 10.8925C10.2243 10.9492 10.5218 10.9042 10.7476 10.82C10.8739 10.7733 10.992 10.7069 11.0976 10.6233C11.112 10.6114 11.1259 10.5988 11.1393 10.5858L11.1451 10.5808L11.1476 10.5783L11.1485 10.5767C11.1485 10.5767 11.1493 10.5758 10.7085 10.1325C10.2668 9.68917 10.2693 9.68834 10.2693 9.68834L10.271 9.68667L10.2726 9.68501L10.2776 9.68084L10.286 9.67251C10.296 9.66351 10.3066 9.65516 10.3176 9.64751C10.326 9.64167 10.3235 9.64417 10.3118 9.64917C10.291 9.65667 10.2093 9.68251 10.0451 9.65751C9.70014 9.60417 8.97514 9.32084 7.78514 8.13751L6.90348 9.02417ZM5.60348 1.00751C4.75348 -0.125826 3.08348 -0.305826 2.06931 0.702507L2.95014 1.58917C3.39348 1.14834 4.18014 1.19417 4.60264 1.75834L5.60348 1.00751ZM1.25181 3.75334C1.23514 3.46501 1.36764 3.16334 1.64264 2.89001L0.760145 2.00334C0.312645 2.44834 -0.0398555 3.07834 0.00264452 3.82334L1.25181 3.75334ZM13.5185 13.8033C13.2901 14.0317 13.0435 14.16 12.7976 14.1825L12.9135 15.4267C13.526 15.3692 14.0268 15.0608 14.4001 14.69L13.5185 13.8033ZM6.46348 5.44084C7.28431 4.62501 7.34514 3.33584 6.65431 2.41251L5.65348 3.16167C5.98931 3.61084 5.93931 4.20001 5.58264 4.55584L6.46348 5.44084ZM14.3968 10.9067C15.0776 11.2767 15.1835 12.1483 14.7026 12.6267L15.5843 13.5125C16.701 12.4017 16.3568 10.5492 14.9926 9.80834L14.3968 10.9067ZM11.5293 10.1992C11.8493 9.88084 12.3643 9.80251 12.8043 10.0408L13.401 8.94334C12.4976 8.45167 11.3776 8.58751 10.6476 9.31251L11.5293 10.1992Z" fill="#0B0D28"/>
</svg>
