<svg width="18" height="18" viewBox="0 0 18 18" fill="none" xmlns="http://www.w3.org/2000/svg">
<path d="M16.5 10H10.25V16.25C10.25 16.5815 10.1183 16.8995 9.88388 17.1339C9.64946 17.3683 9.33152 17.5 9 17.5C8.66848 17.5 8.35054 17.3683 8.11612 17.1339C7.8817 16.8995 7.75 16.5815 7.75 16.25V10H1.5C1.16848 10 0.850537 9.8683 0.616117 9.63388C0.381696 9.39946 0.25 9.08152 0.25 8.75C0.25 8.41848 0.381696 8.10054 0.616117 7.86612C0.850537 7.6317 1.16848 7.5 1.5 7.5H7.75V1.25C7.75 0.918479 7.8817 0.600537 8.11612 0.366116C8.35054 0.131696 8.66848 0 9 0C9.33152 0 9.64946 0.131696 9.88388 0.366116C10.1183 0.600537 10.25 0.918479 10.25 1.25V7.5H16.5C16.8315 7.5 17.1495 7.6317 17.3839 7.86612C17.6183 8.10054 17.75 8.41848 17.75 8.75C17.75 9.08152 17.6183 9.39946 17.3839 9.63388C17.1495 9.8683 16.8315 10 16.5 10Z" fill="black"/>
</svg>
