<svg width="18" height="23" viewBox="0 0 18 23" fill="none" xmlns="http://www.w3.org/2000/svg">
<path d="M2.25 7.46101V21H15.75V7.46101L9.9495 2.71501C9.68156 2.49593 9.34611 2.37624 9 2.37624C8.65389 2.37624 8.31844 2.49593 8.0505 2.71501L2.25 7.46101ZM10.899 1.55401L16.974 6.52501C17.0601 6.59527 17.1296 6.6838 17.1773 6.7842C17.2251 6.88459 17.2499 6.99435 17.25 7.10551V21.75C17.25 21.9489 17.171 22.1397 17.0303 22.2803C16.8897 22.421 16.6989 22.5 16.5 22.5H1.5C1.30109 22.5 1.11032 22.421 0.96967 22.2803C0.829018 22.1397 0.75 21.9489 0.75 21.75V7.10551C0.749926 6.99447 0.774512 6.88479 0.821983 6.7844C0.869453 6.68401 0.938624 6.59542 1.0245 6.52501L7.0995 1.55401C7.63549 1.11546 8.30671 0.875854 8.99925 0.875854C9.69179 0.875854 10.363 1.11546 10.899 1.55401Z" fill="black"/>
<path d="M9 10.5C9.39782 10.5 9.77936 10.342 10.0607 10.0607C10.342 9.77936 10.5 9.39782 10.5 9C10.5 8.60218 10.342 8.22064 10.0607 7.93934C9.77936 7.65804 9.39782 7.5 9 7.5C8.60218 7.5 8.22064 7.65804 7.93934 7.93934C7.65804 8.22064 7.5 8.60218 7.5 9C7.5 9.39782 7.65804 9.77936 7.93934 10.0607C8.22064 10.342 8.60218 10.5 9 10.5ZM9 12C8.20435 12 7.44129 11.6839 6.87868 11.1213C6.31607 10.5587 6 9.79565 6 9C6 8.20435 6.31607 7.44129 6.87868 6.87868C7.44129 6.31607 8.20435 6 9 6C9.79565 6 10.5587 6.31607 11.1213 6.87868C11.6839 7.44129 12 8.20435 12 9C12 9.79565 11.6839 10.5587 11.1213 11.1213C10.5587 11.6839 9.79565 12 9 12Z" fill="black"/>
</svg>
