<svg width="18" height="20" viewBox="0 0 18 20" fill="none" xmlns="http://www.w3.org/2000/svg">
<path d="M14.5119 14.939C13.4042 16.0431 11.9945 16.7946 10.4604 17.0987C8.92626 17.4028 7.33647 17.2459 5.8914 16.6478C4.44633 16.0497 3.21067 15.0371 2.3402 13.7378C1.46972 12.4385 1.00339 10.9106 1 9.34662" stroke="black" stroke-width="1.5" stroke-miterlimit="10" stroke-linecap="round"/>
<path d="M13.8742 19L14.6613 15.8103C14.6975 15.6713 14.7052 15.5264 14.6838 15.3843C14.6625 15.2423 14.6125 15.106 14.537 14.9838C14.4615 14.8616 14.362 14.756 14.2445 14.6733C14.127 14.5907 13.994 14.5327 13.8534 14.503L10.6637 13.7056" stroke="black" stroke-width="1.5" stroke-linecap="round" stroke-linejoin="round"/>
<path d="M3.11511 5.56098C4.22273 4.45656 5.63256 3.70483 7.16682 3.40056C8.70109 3.09629 10.2911 3.25311 11.7364 3.85125C13.1816 4.44938 14.4174 5.46206 15.2879 6.76157C16.1585 8.06109 16.6247 9.58926 16.6279 11.1534" stroke="black" stroke-width="1.5" stroke-miterlimit="10" stroke-linecap="round"/>
<path d="M3.75277 1.50002L2.96575 4.68974C2.92965 4.82881 2.92211 4.97374 2.94358 5.1158C2.96506 5.25786 3.0151 5.3941 3.09069 5.51628C3.16628 5.63846 3.26585 5.74405 3.38338 5.82668C3.50092 5.90931 3.63398 5.96726 3.77453 5.99704L6.96331 6.79447" stroke="black" stroke-width="1.5" stroke-linecap="round" stroke-linejoin="round"/>
</svg>
