<svg width="16" height="18" viewBox="0 0 16 18" fill="none" xmlns="http://www.w3.org/2000/svg">
<path d="M15.429 4.0837L8.52706 0.141737C8.36569 0.0487653 8.18435 0 8 0C7.81565 0 7.63431 0.0487653 7.47294 0.141737L0.57098 4.0837C0.398279 4.18228 0.254157 4.32747 0.153705 4.50409C0.0532532 4.6807 0.000165387 4.88224 0 5.0876V12.9126C0.000165387 13.118 0.0532532 13.3195 0.153705 13.4961C0.254157 13.6728 0.398279 13.818 0.57098 13.9165L7.47294 17.8585C7.63436 17.9513 7.81568 18 8 18C8.18432 18 8.36564 17.9513 8.52706 17.8585L15.429 13.9165C15.6017 13.818 15.7458 13.6728 15.8463 13.4961C15.9467 13.3195 15.9998 13.118 16 12.9126V5.0876C15.9998 4.88224 15.9467 4.6807 15.8463 4.50409C15.7458 4.32747 15.6017 4.18228 15.429 4.0837ZM7.92157 1.00246C7.94465 0.98928 7.97055 0.982374 7.99686 0.982374C8.02318 0.982374 8.04907 0.98928 8.07216 1.00246L14.6282 4.74561L11.9663 6.26496L5.33726 2.48008L7.92157 1.00246ZM7.52941 16.7728L1.01961 13.0558C0.995554 13.0413 0.975618 13.0204 0.961838 12.9953C0.948058 12.9701 0.940928 12.9416 0.941177 12.9126V5.61778L7.52941 9.38139V16.7728ZM1.37176 4.74561L4.35765 3.03971L10.9859 6.82459L8 8.52885L1.37176 4.74561ZM15.0588 12.9126C15.0591 12.9416 15.0519 12.9701 15.0382 12.9953C15.0244 13.0204 15.0044 13.0413 14.9804 13.0558L8.47059 16.7728V9.37975L11.2941 7.76713V10.9637C11.2941 11.0939 11.3437 11.2188 11.4319 11.3109C11.5202 11.4029 11.6399 11.4546 11.7647 11.4546C11.8895 11.4546 12.0092 11.4029 12.0975 11.3109C12.1857 11.2188 12.2353 11.0939 12.2353 10.9637V7.2304L15.0588 5.61778V12.9126Z" fill="black"/>
</svg>
