<svg version="1.2" xmlns="http://www.w3.org/2000/svg" viewBox="0 0 1920 431" width="1920" height="431">
	<title>Group 585-svg</title>
	<defs>
		<clipPath clipPathUnits="userSpaceOnUse" id="cp1">
			<path d="m0-6h1920v443h-1920z"/>
		</clipPath>
		<filter x="-50%" y="-50%" width="200%" height="200%" id="f1"> <feGaussianBlur stdDeviation="100"/> </filter>
	</defs>
	<style>
		.s0 { fill: #f1f1f1 } 
		.s1 { fill: none;stroke: #7d8087 } 
		.s2 { filter: url(#f1);fill: #fff3eb } 
		.s3 { filter: url(#f1);fill: #0b0d28 } 
	</style>
	<path id="Layer" class="s0" d="m0-6h1920v443h-1920z"/>
	<g id="Clip-Path" clip-path="url(#cp1)">
		<g id="Layer">
			<g id="Layer" style="opacity: .2">
				<path id="Layer" fill-rule="evenodd" class="s1" d="m955.5 545.6c-8.9-34.9-5.2-112.3 80.9-143.6 86.1-31.3 111.3-105.1 113.1-138.1 1.2-32.4 16.7-97.2 69.1-97.7 52.4-0.4 63.9-61.4 63-91.8-2.7-19.9 2.6-64.8 45.5-84.7"/>
				<path id="Layer" fill-rule="evenodd" class="s1" d="m942.6 535.8c-8.8-34.9-5.1-112.3 81-143.6 86.1-31.3 111.2-105.1 113.1-138.1 1.2-32.4 16.7-97.2 69.1-97.7 52.4-0.4 63.8-61.4 63-91.8-2.7-19.9 2.5-64.8 45.5-84.7"/>
				<path id="Layer" fill-rule="evenodd" class="s1" d="m929.8 526c-8.9-34.9-5.1-112.3 81-143.6 86.1-31.3 111.2-105.1 113.1-138.1 1.2-32.4 16.7-97.2 69.1-97.7 52.4-0.4 63.8-61.4 63-91.8-2.7-19.9 2.5-64.8 45.5-84.7"/>
				<path id="Layer" fill-rule="evenodd" class="s1" d="m917 516.2c-8.9-34.9-5.1-112.4 81-143.6 86-31.3 111.2-105.1 113-138.1 1.3-32.4 16.8-97.2 69.2-97.7 52.4-0.4 63.8-61.4 63-91.8-2.8-19.9 2.5-64.8 45.5-84.7"/>
				<path id="Layer" fill-rule="evenodd" class="s1" d="m904.2 506.4c-8.9-34.9-5.1-112.4 81-143.6 86-31.3 111.2-105.1 113-138.1 1.2-32.4 16.7-97.3 69.1-97.7 52.5-0.4 63.9-61.4 63-91.8-2.7-19.9 2.6-64.8 45.5-84.7"/>
				<path id="Layer" fill-rule="evenodd" class="s1" d="m891.4 496.6c-8.9-34.9-5.1-112.4 80.9-143.6 86.1-31.3 111.3-105.1 113.1-138.1 1.2-32.4 16.7-97.3 69.1-97.7 52.4-0.4 63.9-61.4 63-91.8-2.7-20 2.6-64.8 45.5-84.7"/>
				<path id="Layer" fill-rule="evenodd" class="s1" d="m878.6 486.8c-8.9-34.9-5.2-112.4 80.9-143.6 86.1-31.3 111.3-105.1 113.1-138.1 1.2-32.4 16.7-97.3 69.1-97.7 52.4-0.4 63.9-61.4 63-91.8-2.7-20 2.6-64.8 45.5-84.7"/>
				<path id="Layer" fill-rule="evenodd" class="s1" d="m865.8 476.9c-8.9-34.8-5.2-112.3 80.9-143.5 86.1-31.3 111.3-105.1 113.1-138.1 1.2-32.4 16.7-97.3 69.1-97.7 52.4-0.4 63.8-61.4 63-91.8-2.7-20 2.6-64.8 45.5-84.7"/>
			</g>
		</g>
	</g>
	<g id="Layer">
		<path id="Layer" class="s2" d="m1741 389.3c-99 0-179-70.2-179-157 0-86.8 80-157 179-157 99 0 179 70.2 179 157 0 86.8-80 157-179 157z"/>
	</g>
	<g id="Layer" style="opacity: .1">
		<path id="Layer" fill-rule="evenodd" class="s3" d="m117.7 191c18.8-0.3 38.5-6 55.1 3.4 17.2 9.6 31.2 27.4 35.5 47.7 4.1 19.3-11.6 36.7-13.2 56.4-1.8 21.5 15.6 46.2 3.3 63.3-12 16.8-37.8 6.7-56.9 11.8-18.1 4.8-34.3 22.6-52.3 17.5-18-5.2-24.7-28.4-37.3-43.2-13.1-15.3-33.5-25-38.4-45.2-5-20.6 3.5-42.2 12.5-61.2 8.7-18.5 20.6-35.8 37.8-45.2 16.4-9.1 35.5-5 53.9-5.3z"/>
	</g>
	<g id="Layer" style="opacity: .1">
		<path id="Layer" fill-rule="evenodd" class="s3" d="m797.6 191c18.4-0.3 37.7-5.9 54 3.2 16.7 9.4 30.5 26.8 34.7 46.6 4.1 18.8-11.3 35.8-12.9 55-1.8 21 15.2 45.1 3.3 61.7-11.8 16.4-37.1 6.5-55.8 11.5-17.7 4.8-33.6 22.1-51.3 17.1-17.6-5-24.1-27.7-36.5-42.1-12.9-14.9-32.8-24.4-37.6-44.1-5-20.1 3.4-41.2 12.2-59.7 8.5-18 20.2-34.9 37-44.1 16.1-8.8 34.8-4.8 52.9-5.1z"/>
	</g>
	<g id="Layer" style="opacity: .1">
		<path id="Layer" fill-rule="evenodd" class="s3" d="m635.9 44.1c19.1-0.4 39.2-6.2 56.2 3.4 17.5 9.8 31.8 28 36.2 48.6 4.2 19.7-11.8 37.5-13.5 57.6-1.8 21.9 15.9 47.1 3.4 64.5-12.2 17.2-38.5 6.8-58.1 12-18.4 5-35 23.1-53.3 17.9-18.4-5.3-25.2-29-38.1-44-13.4-15.7-34.2-25.6-39.2-46.2-5.1-21 3.6-43 12.7-62.4 8.9-18.8 21.1-36.5 38.6-46.1 16.8-9.2 36.3-5 55.1-5.3z"/>
	</g>
</svg>