<svg width="417" height="603" viewBox="0 0 417 603" fill="none" xmlns="http://www.w3.org/2000/svg">
<g opacity="0.1" filter="url(#filter0_f_76_132)">
<path fill-rule="evenodd" clip-rule="evenodd" d="M125.741 202.021C144.512 201.695 164.205 195.982 180.834 205.355C197.953 215.005 211.984 232.815 216.313 253.075C220.437 272.379 204.718 289.8 203.091 309.53C201.321 331.002 218.65 355.69 206.443 372.786C194.424 389.617 168.641 379.455 149.496 384.588C131.421 389.434 115.213 407.229 97.2136 402.072C79.2051 396.912 72.5424 373.664 59.9136 358.922C46.7824 343.593 26.4168 333.85 21.4994 313.689C16.4701 293.068 24.9739 271.483 33.9518 252.477C42.6686 234.024 54.6448 216.669 71.7796 207.25C88.1937 198.227 107.31 202.341 125.741 202.021Z" fill="#0B0D28"/>
</g>
<defs>
<filter id="filter0_f_76_132" x="-180" y="0" width="597" height="603" filterUnits="userSpaceOnUse" color-interpolation-filters="sRGB">
<feFlood flood-opacity="0" result="BackgroundImageFix"/>
<feBlend mode="normal" in="SourceGraphic" in2="BackgroundImageFix" result="shape"/>
<feGaussianBlur stdDeviation="100" result="effect1_foregroundBlur_76_132"/>
</filter>
</defs>
</svg>
