<?xml version="1.0" encoding="utf-8"?>
<!-- Generator: Adobe Illustrator 24.0.0, SVG Export Plug-In . SVG Version: 6.00 Build 0)  -->
<svg version="1.1" id="Layer_1" xmlns="http://www.w3.org/2000/svg" xmlns:xlink="http://www.w3.org/1999/xlink" x="0px" y="0px"
	 viewBox="0 0 157 38" style="enable-background:new 0 0 157 38;" xml:space="preserve">
<style type="text/css">
	.st0{fill:#FFFFFF;}
</style>
<circle class="st0" cx="19" cy="19" r="19"/>
<path d="M20,9h2.4c1.4,0,2.6,1.2,2.6,2.7v9.7c0,4.3-2.4,6.5-6.1,6.5c-2.2,0-4-0.7-5.2-2.2c-1.5-1.9-0.2-4.7,2.1-4.7h1.4
	c0,1.6,0.6,2.2,1.5,2.2c0.8,0,1.4-0.5,1.4-1.8L20,9L20,9z"/>
<path class="st0" d="M45.3,31v-3.3h1.3c1,0,1.8-0.3,2.4-0.9c0.6-0.6,0.9-1.4,0.9-2.4V8.7h3.5v15.7c0,1.4-0.3,2.5-0.8,3.5
	s-1.3,1.8-2.4,2.3c-1,0.5-2.2,0.8-3.6,0.8C46.6,31,45.3,31,45.3,31z M64.9,31.4c-1.6,0-3-0.4-4.3-1.1s-2.3-1.8-3.1-3
	c-0.8-1.3-1.1-2.7-1.1-4.3c0-1.6,0.4-3.1,1.1-4.4c0.8-1.3,1.8-2.3,3.1-3c1.3-0.7,2.7-1.1,4.3-1.1s3,0.4,4.3,1.1c1.3,0.7,2.3,1.7,3,3
	c0.8,1.3,1.1,2.7,1.1,4.4c0,1.6-0.4,3.1-1.1,4.4c-0.8,1.3-1.8,2.3-3.1,3C67.9,31,66.5,31.4,64.9,31.4z M64.9,28.2
	c1,0,1.8-0.2,2.6-0.7c0.7-0.5,1.3-1.1,1.7-1.9c0.4-0.8,0.7-1.7,0.7-2.8c0-1-0.2-1.9-0.7-2.7c-0.4-0.8-1-1.4-1.7-1.9
	s-1.6-0.7-2.6-0.7c-0.9,0-1.8,0.2-2.5,0.7s-1.3,1.1-1.8,1.9c-0.4,0.8-0.6,1.7-0.6,2.7s0.2,1.9,0.6,2.8c0.4,0.8,1,1.4,1.8,1.9
	C63.1,28,64,28.2,64.9,28.2z M84.7,31.4c-1.3,0-2.4-0.3-3.4-0.8s-1.8-1.3-2.4-2.3l0.4-0.6V31h-3.2V8.3h3.4v9.8L79,17.3
	c0.6-0.9,1.4-1.6,2.4-2.2c1-0.5,2.1-0.8,3.4-0.8c1.5,0,2.9,0.4,4.1,1.1c1.2,0.7,2.2,1.7,2.9,3c0.7,1.3,1.1,2.7,1.1,4.3
	s-0.4,3-1.1,4.3s-1.7,2.3-2.9,3.1C87.7,31,86.3,31.4,84.7,31.4z M84.4,28.2c1,0,1.8-0.2,2.5-0.7s1.3-1.1,1.7-1.9
	c0.4-0.8,0.7-1.7,0.7-2.8c0-1-0.2-1.9-0.7-2.7c-0.4-0.8-1-1.4-1.7-1.9s-1.6-0.7-2.5-0.7s-1.8,0.2-2.6,0.7c-0.7,0.5-1.3,1.1-1.8,1.9
	c-0.4,0.8-0.6,1.7-0.6,2.7s0.2,1.9,0.6,2.8c0.4,0.8,1,1.4,1.8,1.9C82.6,28,83.5,28.2,84.4,28.2z"/>
<path class="st0" d="M95.9,31V8.7h8.1c1.5,0,2.8,0.3,4,0.8s2.1,1.3,2.7,2.4c0.6,1,1,2.3,1,3.8c0,1.4-0.3,2.7-1,3.7
	c-0.6,1-1.5,1.8-2.7,2.4s-2.5,0.8-4,0.8h-4.6V31H95.9z M99.4,19.5h4.7c0.8,0,1.5-0.2,2.1-0.5s1.1-0.8,1.4-1.3c0.3-0.6,0.5-1.3,0.5-2
	c0-0.8-0.2-1.4-0.5-2s-0.8-1-1.4-1.3s-1.3-0.5-2.1-0.5h-4.7V19.5z M118.2,31.4c-1.1,0-2.1-0.2-2.9-0.6s-1.5-0.9-1.9-1.6
	c-0.5-0.7-0.7-1.5-0.7-2.5c0-0.9,0.2-1.7,0.6-2.4c0.4-0.7,1-1.3,1.8-1.8s1.9-0.8,3.1-1l5.6-0.9v2.7l-5,0.9c-0.9,0.2-1.6,0.5-2,0.9
	s-0.6,0.9-0.6,1.6c0,0.6,0.2,1.1,0.7,1.5s1.1,0.6,1.8,0.6c0.9,0,1.7-0.2,2.4-0.6c0.7-0.4,1.2-0.9,1.6-1.6s0.6-1.4,0.6-2.3v-4.2
	c0-0.8-0.3-1.5-0.9-2s-1.4-0.8-2.3-0.8s-1.7,0.2-2.4,0.7c-0.7,0.5-1.1,1.1-1.5,1.8l-2.8-1.4c0.3-0.8,0.8-1.5,1.5-2.1
	c0.7-0.6,1.5-1.1,2.4-1.4c0.9-0.3,1.9-0.5,2.9-0.5c1.3,0,2.4,0.2,3.4,0.7s1.8,1.1,2.3,2c0.6,0.8,0.8,1.8,0.8,2.9v11h-3.2v-2.9
	l0.7,0.1c-0.4,0.7-0.9,1.2-1.5,1.7s-1.3,0.8-2,1.1C119.9,31.2,119.1,31.4,118.2,31.4z M136.8,31.2c-1.7,0-3-0.5-4-1.4
	c-0.9-1-1.4-2.3-1.4-4v-7.9h-2.8v-3.1h0.4c0.8,0,1.3-0.2,1.8-0.7c0.4-0.4,0.6-1,0.6-1.8V11h3.4v3.7h3.7v3.1h-3.7v7.7
	c0,0.6,0.1,1,0.3,1.4s0.5,0.7,0.9,0.9c0.4,0.2,0.9,0.3,1.6,0.3c0.2,0,0.3,0,0.5,0s0.4,0,0.6-0.1v3c-0.3,0-0.6,0.1-0.9,0.1
	C137.3,31.2,137,31.2,136.8,31.2z M141.3,31V8.3h3.4V18l-0.5-0.4c0.4-1,1-1.8,1.9-2.3s1.9-0.8,3.1-0.8c1.2,0,2.3,0.3,3.2,0.8
	s1.6,1.2,2.2,2.2c0.5,0.9,0.8,2,0.8,3.1V31H152v-9.6c0-0.8-0.2-1.5-0.5-2.1s-0.7-1-1.3-1.3c-0.5-0.3-1.2-0.5-1.9-0.5
	s-1.3,0.2-1.9,0.5c-0.5,0.3-1,0.7-1.3,1.3c-0.3,0.6-0.5,1.3-0.5,2.1V31H141.3z"/>
</svg>
