<svg width="1920" height="601" viewBox="0 0 1920 601" fill="none" xmlns="http://www.w3.org/2000/svg">
<g opacity="0.15">
<path d="M1576.74 113.244L1626.63 110.576L1652.31 153.442L1702.21 150.774L1727.83 193.613L1776.86 191.016L1776.88 190.978L1777.28 190.949L1802.96 233.815L1852.85 231.147L1878.48 273.986L1928.38 271.318L1954.05 314.184L2003.03 311.561L2005.39 307.127L1956.41 309.751L1930.73 266.885L1880.84 269.553L1855.21 226.714L1805.32 229.381L1779.64 186.516L1779.05 186.541L1779.03 186.579L1730.19 189.18L1704.51 146.315L1654.67 149.009L1628.99 106.143L1579.1 108.811L1553.42 65.945L1552.83 65.9705L1550.53 70.43L1551.06 70.3781L1576.74 113.244Z" fill="#7D8087"/>
<path d="M1533.66 103.1L1559.33 145.966L1609.23 143.298L1634.9 186.164L1684.8 183.496L1710.43 226.336L1759.48 223.701L1759.88 223.671L1785.55 266.537L1835.45 263.869L1861.07 306.709L1910.97 304.041L1936.65 346.907L1985.63 344.283L1987.99 339.85L1939 342.473L1913.33 299.608L1863.43 302.275L1837.81 259.436L1787.91 262.104L1762.23 219.238L1761.65 219.264L1761.63 219.301L1712.79 221.903L1687.16 179.063L1637.26 181.731L1611.59 138.865L1561.69 141.533L1536.01 98.6671L1535.43 98.6927L1533.07 103.126L1533.66 103.1Z" fill="#7D8087"/>
<path d="M1611.69 47.5363L1661.58 44.8686L1687.26 87.7343L1737.16 85.0666L1762.78 127.906L1811.81 125.309L1811.84 125.271L1812.23 125.242L1837.91 168.107L1887.8 165.439L1913.43 208.279L1963.33 205.611L1989 248.477L2037.99 245.853L2040.34 241.42L1991.36 244.044L1965.68 201.178L1915.79 203.846L1890.16 161.006L1840.27 163.674L1814.59 120.808L1814 120.834L1813.98 120.871L1765.12 123.511L1739.49 80.671L1689.6 83.3388L1663.94 40.4354L1614.03 43.1408L1588.37 0.237461L1587.83 0.289411L1585.43 4.69609L1586.01 4.67066L1611.69 47.5363Z" fill="#7D8087"/>
<path d="M1594.28 80.2583L1644.18 77.5907L1669.86 120.456L1719.75 117.789L1745.38 160.628L1794.41 158.031L1794.43 157.993L1794.83 157.964L1820.5 200.829L1870.4 198.162L1896.03 241.001L1945.92 238.333L1971.6 281.199L2020.58 278.575L2022.94 274.142L1973.96 276.766L1948.28 233.9L1898.38 236.568L1872.76 193.728L1822.86 196.396L1797.18 153.53L1796.6 153.556L1796.58 153.594L1747.74 156.195L1722.09 113.393L1672.21 116.023L1646.52 73.1952L1596.64 75.8252L1570.95 32.9972L1570.43 33.0116L1568.02 37.4182L1568.61 37.3927L1594.28 80.2583Z" fill="#7D8087"/>
</g>
<g opacity="0.15">
<path d="M-12.262 347.244L37.634 344.576L63.31 387.442L113.206 384.774L138.833 427.613L187.864 425.016L187.884 424.978L188.282 424.949L213.958 467.815L263.854 465.147L289.48 507.986L339.376 505.318L365.052 548.184L414.034 545.561L416.392 541.127L367.41 543.751L341.734 500.885L291.838 503.553L266.212 460.714L216.316 463.381L190.64 420.516L190.053 420.541L190.033 420.579L141.191 423.18L115.514 380.315L65.6681 383.009L39.992 340.143L-9.90398 342.811L-35.5801 299.945L-36.1664 299.971L-38.4748 304.43L-37.9381 304.378L-12.262 347.244Z" fill="#7D8087"/>
<path d="M-55.3437 337.1L-29.6676 379.966L20.2283 377.298L45.9044 420.164L95.8004 417.496L121.427 460.336L170.479 457.701L170.876 457.671L196.552 500.537L246.448 497.869L272.075 540.709L321.97 538.041L347.647 580.907L396.629 578.283L398.987 573.85L350.005 576.473L324.328 533.608L274.433 536.275L248.806 493.436L198.91 496.104L173.234 453.238L172.648 453.264L172.628 453.301L123.785 455.903L98.1585 413.063L48.2625 415.731L22.5865 372.865L-27.3095 375.533L-52.9856 332.667L-53.5719 332.693L-55.9299 337.126L-55.3437 337.1Z" fill="#7D8087"/>
<path d="M22.6889 281.536L72.5848 278.869L98.2609 321.734L148.157 319.067L173.784 361.906L222.815 359.309L222.835 359.271L223.233 359.242L248.909 402.107L298.805 399.439L324.431 442.279L374.327 439.611L400.003 482.477L448.985 479.853L451.343 475.42L402.361 478.044L376.685 435.178L326.789 437.846L301.163 395.006L251.267 397.674L225.591 354.808L225.004 354.834L224.984 354.871L176.122 357.511L150.495 314.671L100.599 317.339L74.9429 274.435L25.0269 277.141L-0.629136 234.237L-1.16582 234.289L-3.57349 238.696L-2.98722 238.671L22.6889 281.536Z" fill="#7D8087"/>
<path d="M5.28339 314.258L55.1793 311.591L80.8554 354.456L130.751 351.789L156.378 394.628L205.41 392.031L205.43 391.993L205.827 391.964L231.503 434.829L281.399 432.162L307.025 475.001L356.921 472.333L382.597 515.199L431.58 512.575L433.938 508.142L384.956 510.766L359.28 467.9L309.383 470.568L283.757 427.728L233.861 430.396L208.185 387.53L207.599 387.556L207.579 387.594L158.736 390.195L133.089 347.393L83.2135 350.023L57.5174 307.195L7.64141 309.825L-18.0547 266.997L-18.5714 267.012L-20.979 271.418L-20.3927 271.393L5.28339 314.258Z" fill="#7D8087"/>
</g>
</svg>
