<svg width="16" height="16" viewBox="0 0 16 16" fill="none" xmlns="http://www.w3.org/2000/svg">
<g clip-path="url(#clip0_17_963)">
<path d="M4.25 2.25C4.25 2.10166 4.20601 1.95666 4.1236 1.83332C4.04119 1.70999 3.92406 1.61386 3.78701 1.55709C3.64997 1.50032 3.49917 1.48547 3.35368 1.51441C3.2082 1.54335 3.07456 1.61478 2.96967 1.71967C2.86478 1.82456 2.79335 1.9582 2.76441 2.10368C2.73547 2.24917 2.75032 2.39997 2.80709 2.53701C2.86386 2.67406 2.95999 2.79119 3.08332 2.8736C3.20666 2.95601 3.35166 3 3.5 3C3.69884 2.99977 3.88947 2.92068 4.03007 2.78007C4.17068 2.63947 4.24977 2.44884 4.25 2.25ZM3.25 2.25C3.25 2.20055 3.26466 2.15222 3.29213 2.11111C3.3196 2.07 3.35865 2.03795 3.40433 2.01903C3.45001 2.00011 3.50028 1.99516 3.54877 2.0048C3.59727 2.01445 3.64181 2.03826 3.67678 2.07322C3.71174 2.10819 3.73555 2.15273 3.7452 2.20123C3.75484 2.24972 3.74989 2.29999 3.73097 2.34567C3.71205 2.39135 3.68001 2.4304 3.63889 2.45787C3.59778 2.48534 3.54945 2.5 3.5 2.5C3.43372 2.49993 3.37017 2.47356 3.32331 2.42669C3.27644 2.37983 3.25007 2.31628 3.25 2.25Z" fill="black"/>
<path d="M13.5 4.75C13.6483 4.75 13.7933 4.70601 13.9167 4.6236C14.04 4.54119 14.1361 4.42406 14.1929 4.28701C14.2497 4.14997 14.2645 3.99917 14.2356 3.85368C14.2067 3.7082 14.1352 3.57456 14.0303 3.46967C13.9254 3.36478 13.7918 3.29335 13.6463 3.26441C13.5008 3.23547 13.35 3.25032 13.213 3.30709C13.0759 3.36386 12.9588 3.45999 12.8764 3.58332C12.794 3.70666 12.75 3.85166 12.75 4C12.7502 4.19884 12.8293 4.38947 12.9699 4.53007C13.1105 4.67068 13.3012 4.74977 13.5 4.75ZM13.5 3.75C13.5494 3.75 13.5978 3.76466 13.6389 3.79213C13.68 3.8196 13.712 3.85865 13.731 3.90433C13.7499 3.95001 13.7548 4.00028 13.7452 4.04877C13.7356 4.09727 13.7117 4.14181 13.6768 4.17678C13.6418 4.21174 13.5973 4.23555 13.5488 4.2452C13.5003 4.25484 13.45 4.24989 13.4043 4.23097C13.3586 4.21205 13.3196 4.18001 13.2921 4.13889C13.2647 4.09778 13.25 4.04945 13.25 4C13.2501 3.93372 13.2764 3.87017 13.3233 3.82331C13.3702 3.77644 13.4337 3.75007 13.5 3.75Z" fill="black"/>
<path d="M7.25 9C7.25 8.85166 7.20601 8.70666 7.1236 8.58332C7.04119 8.45999 6.92406 8.36386 6.78701 8.30709C6.64997 8.25033 6.49917 8.23547 6.35368 8.26441C6.2082 8.29335 6.07456 8.36478 5.96967 8.46967C5.86478 8.57456 5.79335 8.7082 5.76441 8.85368C5.73547 8.99917 5.75032 9.14997 5.80709 9.28701C5.86386 9.42406 5.95999 9.54119 6.08332 9.6236C6.20666 9.70601 6.35166 9.75 6.5 9.75C6.69884 9.74977 6.88947 9.67068 7.03007 9.53007C7.17068 9.38947 7.24977 9.19884 7.25 9ZM6.25 9C6.25 8.95055 6.26466 8.90222 6.29213 8.86111C6.3196 8.82 6.35865 8.78795 6.40433 8.76903C6.45001 8.75011 6.50028 8.74516 6.54877 8.7548C6.59727 8.76445 6.64181 8.78826 6.67678 8.82322C6.71174 8.85819 6.73555 8.90273 6.7452 8.95123C6.75484 8.99972 6.74989 9.04999 6.73097 9.09567C6.71205 9.14135 6.68001 9.1804 6.63889 9.20787C6.59778 9.23534 6.54945 9.25 6.5 9.25C6.43372 9.24993 6.37017 9.22356 6.32331 9.1767C6.27644 9.12983 6.25007 9.06628 6.25 9Z" fill="black"/>
<path d="M16 3.73332C16.0003 3.3921 15.9037 3.05734 15.7208 2.76549C15.538 2.47363 15.2758 2.23587 14.9628 2.07807C14.6498 1.92027 14.2981 1.84849 13.9458 1.87054C13.5936 1.89259 13.2543 2.00762 12.965 2.20312C11.8313 1.33607 10.4758 0.781938 9.04256 0.59953C7.60929 0.417121 6.15168 0.613244 4.82441 1.16708C4.6565 0.765436 4.34928 0.43276 3.95543 0.22609C3.56157 0.0194196 3.10562 -0.0483733 2.66572 0.0343336C2.22582 0.11704 1.82939 0.345095 1.54438 0.679402C1.25937 1.01371 1.10353 1.43344 1.10359 1.86665C1.10359 2.48055 1.28766 3.04945 1.60776 3.61665C0.713761 4.76506 0.168514 6.13157 0.0332029 7.56285C-0.102108 8.99414 0.17787 10.4336 0.84172 11.7196C1.50557 13.0056 2.52702 14.0874 3.79146 14.8434C5.0559 15.5995 6.51328 16 8.00007 16C9.29594 15.9993 10.5723 15.6945 11.7194 15.1118C12.8665 14.529 13.8501 13.6857 14.5856 12.6544C15.3212 11.6231 15.7867 10.4345 15.9422 9.19087C16.0977 7.94723 15.9384 6.68569 15.4782 5.51466C15.8093 4.93699 16 4.35849 16 3.73332ZM15.4483 3.73332C15.4483 4.43332 15.2069 5.18449 14.0687 6.51939C13.2328 5.54416 12.6897 4.68072 12.6897 3.73332C12.6897 3.3797 12.835 3.04056 13.0937 2.79051C13.3523 2.54046 13.7032 2.39999 14.069 2.39999C14.4348 2.39999 14.7856 2.54046 15.0443 2.79051C15.303 3.04056 15.4483 3.3797 15.4483 3.73332ZM8.22959 1.07048C9.36749 1.10394 10.4823 1.38933 11.4882 1.90468C11.2222 2.35618 10.8173 2.77925 10.2612 2.67182C9.48664 2.52222 8.93589 2.93452 8.49324 3.26595C7.97966 3.65042 7.73587 3.80829 7.33808 3.52002C7.2911 3.48641 7.25201 3.44356 7.22337 3.3943C7.19474 3.34505 7.17721 3.29049 7.17194 3.23422C7.11043 2.79205 7.4949 2.00745 8.22959 1.07048ZM3.03461 0.533316C3.40029 0.533713 3.75088 0.674317 4.00946 0.92428C4.26804 1.17424 4.41349 1.51315 4.4139 1.86665C4.4139 2.56665 4.17253 3.31782 3.0343 4.65272C2.19844 3.67749 1.65531 2.81405 1.65531 1.86665C1.65572 1.51315 1.80117 1.17424 2.05975 0.92428C2.31833 0.674317 2.66892 0.533713 3.03461 0.533316ZM1.91813 4.10915C2.19729 4.50299 2.5001 4.88065 2.82502 5.24019C2.85092 5.26939 2.88305 5.29284 2.9192 5.30891C2.95535 5.32499 2.99468 5.33331 3.03447 5.33331C3.07426 5.33331 3.11358 5.32499 3.14974 5.30891C3.18589 5.29284 3.21802 5.26939 3.24391 5.24019C3.79546 4.61809 4.24859 4.03749 4.55131 3.45069C4.97259 3.93579 5.11483 4.45609 4.97372 5.00199C4.72659 5.95749 4.18332 6.38372 3.65791 6.79592C3.0803 7.24919 2.48289 7.71789 2.48289 8.79999C2.48289 9.67219 2.4172 10.2639 2.09013 10.5187C1.86979 10.6903 1.49942 10.7272 0.961524 10.6314C0.689382 9.87078 0.550917 9.07148 0.551873 8.26666C0.546522 6.77684 1.02434 5.32286 1.91813 4.10915ZM1.19504 11.2025C1.29522 11.2121 1.39073 11.217 1.48155 11.2171C1.88155 11.2171 2.19303 11.1235 2.4363 10.934C2.98885 10.5036 3.03461 9.67896 3.03461 8.79999C3.03461 7.97192 3.44195 7.65232 4.00573 7.20999C4.57366 6.76446 5.21734 6.25942 5.50917 5.13126C5.71406 4.33859 5.46375 3.57439 4.78552 2.90829C4.90377 2.57286 4.9646 2.22102 4.96562 1.86665C4.96562 1.80825 4.96245 1.75055 4.957 1.69352C5.772 1.33892 6.64709 1.13107 7.53928 1.08018C7.01484 1.80318 6.53585 2.66319 6.62512 3.30519C6.63973 3.43174 6.68118 3.55403 6.74688 3.6644C6.81258 3.77477 6.90113 3.87085 7.00698 3.94665C7.25977 4.12999 7.49487 4.20099 7.71387 4.20099C8.14524 4.20099 8.51386 3.92502 8.8311 3.68765C9.23965 3.38179 9.62585 3.09295 10.153 3.19489C10.8578 3.33102 11.4938 2.96919 11.9659 2.17155C12.1694 2.29542 12.367 2.42906 12.5586 2.57249C12.2861 2.90201 12.1377 3.31142 12.138 3.73332C12.138 3.91998 12.1552 4.10626 12.1892 4.28999C11.6311 4.45142 11.1506 4.53332 10.7587 4.53332C9.78229 4.53332 8.92182 4.96665 8.5131 5.66466C8.16583 6.25762 8.19424 6.96446 8.5911 7.60386C8.94913 8.18052 9.54802 8.47559 10.182 8.78776C11.1276 9.25333 12.1052 9.73466 12.4192 11.2523C12.5977 12.1148 12.8793 12.8246 13.2566 13.3674C12.165 14.4244 10.7582 15.1243 9.23385 15.3685C9.34147 14.8045 9.56016 13.8464 9.90195 13.1859C10.3479 12.3238 10.4226 11.6521 10.13 11.1326C9.82402 10.5888 9.15447 10.2644 8.08466 10.1412C8.21022 9.79592 8.27488 9.43268 8.27593 9.06666C8.27593 8.57159 8.07248 8.09679 7.71035 7.74673C7.34821 7.39666 6.85705 7.19999 6.34492 7.19999C5.83278 7.19999 5.34162 7.39666 4.97948 7.74673C4.61735 8.09679 4.4139 8.57159 4.4139 9.06666C4.4139 9.56016 4.53294 10.0246 4.7458 10.4825C4.41042 10.7745 4.30042 11.2112 4.41925 11.7856C4.54414 12.3897 5.07155 12.8667 5.62992 13.3716C6.27492 13.955 6.93912 14.5563 7.13418 15.4183C5.85168 15.2718 4.63037 14.8064 3.58945 14.0676C2.54852 13.3287 1.72355 12.3415 1.19504 11.2025V11.2025ZM4.96562 9.06666C4.96562 8.71304 5.11094 8.3739 5.36961 8.12385C5.62827 7.8738 5.9791 7.73332 6.34492 7.73332C6.71073 7.73332 7.06156 7.8738 7.32023 8.12385C7.57889 8.3739 7.72421 8.71304 7.72421 9.06666C7.72421 9.76666 7.48284 10.5178 6.34461 11.8527C5.50875 10.8775 4.96562 10.0141 4.96562 9.06666ZM7.70432 15.4606C7.52025 14.3511 6.71915 13.6264 6.00685 12.9822C5.49365 12.5181 5.05045 12.1173 4.96028 11.681C4.88972 11.3401 4.92952 11.1289 5.01928 10.9891C5.30893 11.4624 5.69003 11.9378 6.13547 12.4402C6.16137 12.4694 6.1935 12.4928 6.22965 12.5089C6.2658 12.525 6.30512 12.5333 6.34492 12.5333C6.38471 12.5333 6.42403 12.525 6.46019 12.5089C6.49634 12.4928 6.52847 12.4694 6.55436 12.4402C7.10501 11.8191 7.55756 11.2394 7.86028 10.6535C7.89639 10.6572 7.93283 10.661 7.96959 10.665C8.86613 10.7613 9.42985 11.0043 9.64543 11.3873C9.84543 11.7424 9.76781 12.2527 9.40854 12.9473C9.00034 13.7363 8.75917 14.8871 8.66058 15.4384C8.44217 15.4568 8.22193 15.4666 8.00011 15.4666C7.90114 15.4667 7.80263 15.4643 7.70432 15.4606ZM15.4483 8.26666C15.4534 9.99194 14.8127 11.6608 13.6445 12.9651C13.3427 12.4946 13.1129 11.8854 12.9602 11.1477C12.5938 9.37669 11.3954 8.78666 10.4324 8.31252C9.84664 8.02409 9.34071 7.77496 9.0642 7.32946C8.7682 6.85256 8.743 6.35466 8.99323 5.92742C9.3042 5.39666 9.98067 5.06665 10.7587 5.06665C11.1989 5.06665 11.7261 4.97899 12.3287 4.80632C12.6011 5.57236 13.1487 6.30512 13.8595 7.10686C13.8854 7.13606 13.9176 7.15951 13.9537 7.17558C13.9899 7.19166 14.0292 7.19998 14.069 7.19998C14.1088 7.19998 14.1481 7.19166 14.1842 7.17558C14.2204 7.15951 14.2525 7.13606 14.2784 7.10686C14.5871 6.75872 14.8646 6.42352 15.1025 6.09312C15.3325 6.79618 15.4491 7.52929 15.4483 8.26666Z" fill="black"/>
</g>
<defs>
<clipPath id="clip0_17_963">
<rect width="16" height="16" fill="white"/>
</clipPath>
</defs>
</svg>
