<svg width="16" height="16" viewBox="0 0 16 16" fill="none" xmlns="http://www.w3.org/2000/svg">
<path d="M3.9473 1.00074C3.10581 1.13927 2.49864 1.39717 2.02485 1.87612C0.999878 2.91288 0.999878 4.58186 0.999878 7.91982C0.999878 11.2578 0.999878 12.9268 2.02485 13.9643C3.04981 15.0018 4.69964 15.001 8.00002 15.001C11.2997 15.001 12.9502 15.001 13.9752 13.9643C15.0002 12.9275 15.0002 11.2578 15.0002 7.91982C15.0002 4.58186 15.0002 2.91214 13.9752 1.87539C13.5014 1.39643 12.8942 1.13853 12.0527 1" stroke="black" stroke-width="1.5" stroke-linecap="round" stroke-linejoin="round"/>
<path d="M6.15788 2.84289C6.52041 2.47004 7.48422 1.00075 8.00002 1.00075M8.00002 1.00075C8.51582 1.00075 9.47963 2.47004 9.84216 2.84289M8.00002 1.00075V6.8956M15.0002 9.10617H11.3704C10.75 9.10617 10.2629 9.62492 9.98879 10.1724C9.69184 10.7678 9.0972 11.3167 8.00002 11.3167C6.90284 11.3167 6.30819 10.7678 6.0105 10.1724C5.73787 9.62492 5.25007 9.10617 4.62963 9.10617H0.999878" stroke="black" stroke-width="1.5" stroke-linecap="round" stroke-linejoin="round"/>
</svg>
