<svg width="16" height="14" viewBox="0 0 16 14" fill="none" xmlns="http://www.w3.org/2000/svg">
<path d="M8 2.21851L7.59814 2.60749C7.65021 2.66179 7.71263 2.70498 7.78167 2.73448C7.85072 2.76397 7.92497 2.77918 8 2.77918C8.07502 2.77918 8.14928 2.76397 8.21833 2.73448C8.28737 2.70498 8.3498 2.66179 8.40186 2.60749L8 2.21851ZM6.08447 11.8098C4.95628 10.9159 3.72316 10.0429 2.74456 8.93583C1.78605 7.84969 1.11628 6.58327 1.11628 4.9391H0C0 6.93335 0.826046 8.45485 1.91033 9.68087C2.97451 10.8852 4.33191 11.8502 5.39312 12.6909L6.08447 11.8098ZM1.11628 4.9391C1.11628 3.33084 2.02047 1.98139 3.25507 1.41363C4.4547 0.862335 6.0666 1.0082 7.59814 2.60749L8.40186 1.83029C6.58605 -0.0674675 4.47553 -0.380892 2.7907 0.393319C1.14307 1.15107 0 2.91044 0 4.9391H1.11628ZM5.39312 12.6909C5.77488 12.9932 6.18419 13.3148 6.5987 13.5587C7.01321 13.8018 7.48651 14 8 14V12.878C7.7693 12.878 7.49842 12.7882 7.16205 12.59C6.82493 12.3925 6.47591 12.1202 6.08447 11.8098L5.39312 12.6909ZM10.6069 12.6909C11.6681 11.8494 13.0255 10.8859 14.0897 9.68087C15.174 8.4541 16 6.93335 16 4.9391H14.8837C14.8837 6.58327 14.214 7.84969 13.2554 8.93583C12.2768 10.0429 11.0437 10.9159 9.91553 11.8098L10.6069 12.6909ZM16 4.9391C16 2.91044 14.8577 1.15107 13.2093 0.393319C11.5245 -0.380892 9.41544 -0.0674675 7.59814 1.82954L8.40186 2.60749C9.9334 1.00895 11.5453 0.862335 12.7449 1.41363C13.9795 1.98139 14.8837 3.33009 14.8837 4.9391H16ZM9.91553 11.8098C9.52409 12.1202 9.17507 12.3925 8.83795 12.59C8.50158 12.7874 8.2307 12.878 8 12.878V14C8.51349 14 8.98679 13.8018 9.4013 13.5587C9.81656 13.3148 10.2251 12.9932 10.6069 12.6909L9.91553 11.8098Z" fill="black"/>
</svg>
