<svg width="18" height="18" viewBox="0 0 18 18" fill="none" xmlns="http://www.w3.org/2000/svg">
<path fill-rule="evenodd" clip-rule="evenodd" d="M12.6368 1.67415C11.6878 1.6308 11.4031 1.62165 9 1.62165V1.62157C6.59693 1.62157 6.31222 1.6308 5.36325 1.67408C4.79253 1.68087 4.22723 1.78569 3.69202 1.98397C3.30389 2.13375 2.95141 2.3631 2.65724 2.65728C2.36307 2.95146 2.13373 3.30396 1.98397 3.6921C1.78569 4.22731 1.68087 4.79261 1.67408 5.36333C1.63073 6.3123 1.62157 6.597 1.62157 9.00007C1.62157 11.4031 1.6308 11.6878 1.67408 12.6368C1.68087 13.2075 1.78569 13.7728 1.98397 14.3081C2.13374 14.6962 2.36308 15.0487 2.65725 15.3428C2.95142 15.637 3.3039 15.8663 3.69202 16.0161C4.22723 16.2144 4.79253 16.3192 5.36325 16.326C6.31215 16.3694 6.5967 16.3785 9 16.3785C11.4033 16.3785 11.6879 16.3693 12.6368 16.326C13.2075 16.3192 13.7728 16.2144 14.308 16.0161C14.6961 15.8663 15.0486 15.637 15.3428 15.3428C15.6369 15.0487 15.8663 14.6962 16.016 14.3081C16.2143 13.7728 16.3191 13.2075 16.3259 12.6368C16.3693 11.6878 16.3784 11.4031 16.3784 9.00007C16.3784 6.597 16.3692 6.3123 16.3259 5.36333C16.3191 4.79261 16.2143 4.22731 16.016 3.6921C15.8663 3.30398 15.6369 2.95149 15.3428 2.65732C15.0486 2.36316 14.6961 2.13381 14.308 1.98405C13.7728 1.78577 13.2075 1.68094 12.6368 1.67415ZM5.2893 0.0541499C6.24922 0.0103499 6.55575 0 9 0C11.4443 0 11.7508 0.01035 12.7103 0.054525C13.457 0.0694787 14.1957 0.210934 14.895 0.472875C15.4929 0.704069 16.0359 1.05763 16.4893 1.51089C16.9426 1.96415 17.2962 2.50712 17.5275 3.105C17.7894 3.80422 17.9309 4.54279 17.9459 5.2893C17.9896 6.24922 18 6.55575 18 9C18 11.4443 17.9897 11.7508 17.9462 12.7103C17.9313 13.457 17.7898 14.1957 17.5279 14.895C17.2966 15.493 16.943 16.036 16.4897 16.4893C16.0364 16.9426 15.4933 17.2963 14.8954 17.5275C14.196 17.7894 13.4573 17.9309 12.7107 17.9459C11.7508 17.9896 11.4443 18 9 18C6.55575 18 6.24923 17.9897 5.28968 17.9462C4.54304 17.9313 3.80434 17.7898 3.105 17.5279C2.50705 17.2966 1.96401 16.943 1.51068 16.4897C1.05735 16.0364 0.703735 15.4933 0.4725 14.8954C0.210559 14.196 0.0691036 13.4573 0.0541499 12.7107C0.0103499 11.7508 0 11.4443 0 9C0 6.55575 0.0103499 6.24923 0.0541499 5.28968C0.0690949 4.54304 0.210551 3.80434 0.4725 3.105C0.703735 2.50705 1.05735 1.96401 1.51068 1.51068C1.96401 1.05735 2.50705 0.703735 3.105 0.4725C3.80422 0.210592 4.54279 0.0691372 5.2893 0.0541499ZM13.8042 5.27572C14.4007 5.27572 14.8842 4.79219 14.8842 4.19572C14.8842 3.59926 14.4007 3.11572 13.8042 3.11572C13.2077 3.11572 12.7242 3.59926 12.7242 4.19572C12.7242 4.79219 13.2077 5.27572 13.8042 5.27572ZM8.99998 4.37842C8.0859 4.37842 7.19235 4.64947 6.43233 5.15731C5.6723 5.66514 5.07993 6.38694 4.73013 7.23144C4.38033 8.07594 4.28881 9.00519 4.46713 9.90171C4.64546 10.7982 5.08563 11.6217 5.73198 12.2681C6.37833 12.9144 7.20183 13.3546 8.09834 13.5329C8.99485 13.7112 9.92411 13.6197 10.7686 13.2699C11.6131 12.9201 12.3349 12.3277 12.8427 11.5677C13.3506 10.8077 13.6216 9.91414 13.6216 9.00007C13.6216 7.77433 13.1347 6.5988 12.268 5.73207C11.4013 4.86534 10.2257 4.37842 8.99998 4.37842ZM8.99998 12.0001C8.40663 12.0001 7.82662 11.8241 7.33327 11.4945C6.83992 11.1648 6.4554 10.6963 6.22834 10.1481C6.00128 9.59994 5.94187 8.99674 6.05762 8.4148C6.17338 7.83285 6.4591 7.29831 6.87866 6.87875C7.29822 6.45919 7.83276 6.17347 8.41471 6.05771C8.99665 5.94196 9.59985 6.00137 10.148 6.22843C10.6962 6.45549 11.1647 6.84001 11.4944 7.33336C11.824 7.82671 12 8.40672 12 9.00007C12 9.79572 11.6839 10.5588 11.1213 11.1214C10.5587 11.684 9.79563 12.0001 8.99998 12.0001Z" fill="#F1F1F1"/>
</svg>
