<svg width="16" height="16" viewBox="0 0 16 16" fill="none" xmlns="http://www.w3.org/2000/svg">
<path d="M15.9986 4.68661C15.9699 5.84707 15.5609 6.95053 14.8558 7.76972L12.374 10.667C12.0125 11.0911 11.5825 11.4272 11.109 11.6561C10.6354 11.8849 10.1276 12.0019 9.61501 12.0003H9.61144C9.0901 11.9998 8.57412 11.8775 8.09397 11.6405C7.61383 11.4035 7.17927 11.0566 6.81596 10.6204C6.45264 10.1842 6.16794 9.66741 5.97868 9.10065C5.78942 8.53388 5.69943 7.92861 5.71403 7.32059C5.7183 7.14379 5.78258 6.97621 5.89274 6.85471C6.00291 6.73321 6.14993 6.66775 6.30147 6.67272C6.453 6.67769 6.59664 6.75269 6.70077 6.88122C6.80491 7.00976 6.86102 7.18129 6.85676 7.35809C6.84635 7.788 6.90992 8.21598 7.04369 8.61674C7.17746 9.0175 7.37872 9.38291 7.63559 9.69138C7.89246 9.99985 8.19971 10.2451 8.5392 10.4127C8.8787 10.5803 9.24353 10.6667 9.61215 10.667C9.97451 10.6681 10.3335 10.5853 10.6682 10.4235C11.003 10.2618 11.307 10.0242 11.5626 9.72459L14.0445 6.82896C14.5566 6.22401 14.8427 5.40726 14.8404 4.55704C14.8381 3.70682 14.5476 2.89218 14.0323 2.29098C13.517 1.68978 12.8188 1.35085 12.0901 1.34819C11.3614 1.34553 10.6613 1.67935 10.1428 2.27678L9.35718 3.19338C9.24916 3.31312 9.10532 3.37888 8.95633 3.37666C8.80734 3.37443 8.66499 3.30439 8.55963 3.18147C8.45427 3.05854 8.39424 2.89246 8.39233 2.71863C8.39042 2.5448 8.44679 2.37698 8.54942 2.25094L9.33504 1.33434C9.6975 0.911313 10.1278 0.57574 10.6015 0.34679C11.0751 0.11784 11.5828 0 12.0954 0C12.6081 0 13.1158 0.11784 13.5894 0.34679C14.063 0.57574 14.4934 0.911313 14.8558 1.33434C15.2313 1.77344 15.5262 2.29708 15.7226 2.87339C15.9191 3.4497 16.013 4.06662 15.9986 4.68661ZM6.6425 12.8052L5.85687 13.7218C5.60066 14.0228 5.2957 14.2613 4.95975 14.4236C4.62379 14.5858 4.26355 14.6684 3.89996 14.6667C3.35452 14.6662 2.82145 14.4771 2.36811 14.1233C1.91476 13.7694 1.56148 13.2667 1.3529 12.6787C1.14433 12.0907 1.08981 11.4438 1.19625 10.8197C1.30268 10.1955 1.56529 9.6222 1.9509 9.17213L4.42847 6.2765C4.8187 5.8188 5.31787 5.50859 5.86115 5.38613C6.40444 5.26368 6.96673 5.33464 7.475 5.58982C7.98326 5.84499 8.41403 6.27258 8.71134 6.81705C9.00865 7.36152 9.15877 7.99771 9.14221 8.643C9.13795 8.8198 9.19406 8.99133 9.29819 9.11986C9.40233 9.24839 9.54597 9.32339 9.6975 9.32837C9.84904 9.33334 9.99606 9.26787 10.1062 9.14637C10.2164 9.02487 10.2807 8.85729 10.2849 8.68049C10.2987 8.06148 10.2044 7.44567 10.008 6.87042C9.81157 6.29517 9.51701 5.77248 9.14221 5.33406C8.41028 4.48048 7.41776 4.00097 6.38288 4.00097C5.34801 4.00097 4.35549 4.48048 3.62356 5.33406L1.14313 8.22969C0.597646 8.86586 0.226036 9.67642 0.0752635 10.5589C-0.0755087 11.4414 0.00132419 12.3563 0.296053 13.1878C0.590781 14.0194 1.09018 14.7304 1.73113 15.2309C2.37208 15.7315 3.12582 15.9991 3.8971 16C4.40981 16.0017 4.91771 15.8848 5.39142 15.6559C5.86512 15.4271 6.29521 15.0908 6.65678 14.6667L7.44241 13.7501C7.53487 13.6231 7.58318 13.4602 7.5778 13.2936C7.57242 13.127 7.51375 12.9689 7.41336 12.8503C7.31296 12.7317 7.17813 12.6613 7.03544 12.6529C6.89274 12.6446 6.75255 12.6989 6.6425 12.8052Z" fill="black"/>
</svg>
