<svg width="16" height="16" viewBox="0 0 16 16" fill="none" xmlns="http://www.w3.org/2000/svg">
<path fill-rule="evenodd" clip-rule="evenodd" d="M4.26667 3.2V0H5.33333V3.2H4.26667ZM9.9392 1.04C10.605 0.374201 11.508 0.000158273 12.4496 0.000158273C13.3912 0.000158273 14.2942 0.374201 14.96 1.04C15.6258 1.7058 15.9998 2.60882 15.9998 3.5504C15.9998 4.49198 15.6258 5.395 14.96 6.0608L11.5776 9.44427L10.8224 8.68907L14.2059 5.30667C14.4365 5.07603 14.6195 4.80223 14.7443 4.50088C14.8691 4.19954 14.9333 3.87657 14.9333 3.5504C14.9333 3.22423 14.8691 2.90126 14.7443 2.59992C14.6195 2.29857 14.4365 2.02477 14.2059 1.79413C13.9752 1.5635 13.7014 1.38055 13.4001 1.25573C13.0987 1.13091 12.7758 1.06666 12.4496 1.06666C12.1234 1.06666 11.8005 1.13091 11.4991 1.25573C11.1978 1.38055 10.924 1.5635 10.6933 1.79413L7.31093 5.1776L6.55573 4.4224L9.9392 1.04ZM0 4.26667H3.2V5.33333H0V4.26667ZM11.5776 5.1776L5.1776 11.5776L4.4224 10.8224L10.8224 4.4224L11.5776 5.1776ZM5.1776 7.31093L1.79413 10.6933C1.34413 11.1623 1.09585 11.789 1.10257 12.439C1.10928 13.0889 1.37046 13.7103 1.83006 14.1699C2.28966 14.6295 2.91109 14.8907 3.56103 14.8974C4.21097 14.9042 4.83766 14.6559 5.30667 14.2059L8.68907 10.8224L9.44427 11.5776L6.0608 14.96C5.73113 15.2897 5.33975 15.5512 4.90902 15.7296C4.47828 15.908 4.01662 15.9998 3.5504 15.9998C3.08418 15.9998 2.62252 15.908 2.19178 15.7296C1.76105 15.5512 1.36967 15.2897 1.04 14.96C0.71033 14.6303 0.448821 14.239 0.270404 13.8082C0.0919879 13.3775 0.000158232 12.9158 0.000158236 12.4496C0.000158239 11.9834 0.091988 11.5217 0.270404 11.091C0.448821 10.6602 0.71033 10.2689 1.04 9.9392L4.4224 6.55573L5.1776 7.31093ZM16 11.7333H12.8V10.6667H16V11.7333ZM10.6667 16V12.8H11.7333V16H10.6667Z" fill="black"/>
</svg>
