<svg width="18" height="18" viewBox="0 0 18 18" fill="none" xmlns="http://www.w3.org/2000/svg">
<path d="M16.6575 2.41586e-05H1.3425C0.993543 -0.00207383 0.657636 0.132548 0.406712 0.375061C0.155788 0.617574 0.00979604 0.948698 0 1.29752V16.65C0.00787611 16.9995 0.153267 17.3317 0.404613 17.5747C0.655959 17.8176 0.992973 17.9516 1.3425 17.9475H16.6575C17.007 17.9516 17.344 17.8176 17.5954 17.5747C17.8467 17.3317 17.9921 16.9995 18 16.65V1.29752C17.9902 0.948698 17.8442 0.617574 17.5933 0.375061C17.3424 0.132548 17.0065 -0.00207383 16.6575 2.41586e-05ZM5.3325 15.3075H2.6925V6.75002H5.3325V15.3075ZM4.0425 5.55752C3.63717 5.55764 3.24786 5.39923 2.95777 5.11614C2.66767 4.83306 2.49979 4.44774 2.49 4.04252C2.48266 3.83667 2.5178 3.63151 2.59322 3.43983C2.66864 3.24815 2.78273 3.07406 2.92839 2.92841C3.07404 2.78276 3.24813 2.66867 3.43981 2.59324C3.63149 2.51782 3.83665 2.48268 4.0425 2.49002C4.43463 2.51733 4.80181 2.69236 5.06993 2.9798C5.33805 3.26725 5.48716 3.64569 5.48716 4.03877C5.48716 4.43185 5.33805 4.8103 5.06993 5.09774C4.80181 5.38518 4.43463 5.56022 4.0425 5.58752V5.55752ZM15.36 15.255H12.75V11.07C12.75 10.0725 12.75 8.77502 11.355 8.77502C9.96 8.77502 9.75 9.87002 9.75 10.9725V15.21H7.08V6.75002H9.57V7.87502H9.6225C9.87772 7.43179 10.2499 7.06725 10.6983 6.82122C11.1467 6.5752 11.6541 6.45717 12.165 6.48002C14.8575 6.48002 15.36 8.28002 15.36 10.5675V15.255Z" fill="#F1F1F1"/>
</svg>
