<svg width="20" height="20" viewBox="0 0 20 20" fill="none" xmlns="http://www.w3.org/2000/svg">
<path d="M19.8993 17.8793L17.7674 13.8559C17.6177 13.5756 17.3392 13.4083 17.0224 13.4083H12.8815C14.6795 11.1427 16.427 8.60551 16.427 6.42648C16.427 2.88289 13.5441 0 10.0005 0C6.45627 0 3.57288 2.88289 3.57288 6.42648C3.57288 8.60305 5.32116 11.1413 7.11999 13.4083H2.97854C2.65999 13.4083 2.3812 13.5761 2.23292 13.8568L0.10229 17.878C-0.0411864 18.1456 -0.0335301 18.4486 0.124009 18.7105C0.281275 18.9691 0.544868 19.1175 0.847173 19.1175H3.98944H6.32014H19.1538C19.4571 19.1175 19.7207 18.9687 19.8766 18.7092C20.0328 18.4495 20.0411 18.1471 19.8993 17.8793ZM17.0224 14.0332C17.1083 14.0332 17.1753 14.0737 17.2157 14.1494L17.6085 14.8908H11.6781C11.9074 14.6117 12.1425 14.3254 12.3795 14.0332H17.0224ZM10.0005 0.624922C13.1994 0.624922 15.802 3.2275 15.802 6.42645C15.802 8.88746 13.1189 12.1529 11.1597 14.5373C10.7426 15.045 10.345 15.5288 10.0005 15.97C9.65628 15.5292 9.25917 15.0457 8.84245 14.5385C6.88233 12.1523 4.19784 8.88445 4.19784 6.42648C4.19784 3.2275 6.80088 0.624922 10.0005 0.624922ZM2.97854 14.0332H5.25713L4.97022 14.8908H2.39233L2.78538 14.149C2.82534 14.0733 2.89217 14.0332 2.97854 14.0332ZM0.658775 18.3871C0.616548 18.3169 0.614634 18.245 0.653814 18.1719L1.3167 16.9208H4.29053L3.76452 18.4925H0.847173C0.764673 18.4926 0.701079 18.4566 0.658775 18.3871ZM4.4235 18.4926L5.02092 16.7075C5.05284 16.6122 5.03694 16.5074 4.97823 16.4258C4.91948 16.3443 4.8251 16.2959 4.7246 16.2959H1.64784L2.06116 15.5158H5.19518C5.32956 15.5158 5.44889 15.4299 5.49151 15.3024L5.91612 14.0332H7.62178C7.87128 14.3408 8.11874 14.6421 8.35948 14.9352C8.83858 15.5184 9.29159 16.0698 9.66327 16.5557C9.72967 16.6771 9.85733 16.7547 10.0003 16.7547H10.0004C10.1434 16.7547 10.2712 16.6771 10.3376 16.5557C10.5833 16.2345 10.8649 15.8844 11.1657 15.5158H17.9397L18.353 16.2959H11.462C11.334 16.2959 11.219 16.3739 11.1717 16.4927C11.1243 16.6116 11.1542 16.7473 11.2471 16.8352L12.9972 18.4926H11.1834L7.67534 15.1702C7.5978 15.0968 7.48831 15.068 7.38471 15.0939C7.2812 15.1198 7.19799 15.1967 7.16413 15.2979L6.09514 18.4925H4.4235V18.4926ZM10.2746 18.4926H6.75421L7.60139 15.9609L10.2746 18.4926ZM19.341 18.3871C19.299 18.4571 19.236 18.4926 19.1537 18.4926H13.906L12.2464 16.9209H18.6842L19.3471 18.1718C19.3854 18.2442 19.3834 18.3167 19.341 18.3871ZM13.949 6.42648C13.949 4.24926 12.1777 2.47793 10.0004 2.47793C7.82315 2.47793 6.05186 4.24922 6.05186 6.42648C6.05186 8.60434 7.82315 10.3761 10.0004 10.3761C12.1777 10.3761 13.949 8.6043 13.949 6.42648ZM6.67686 6.42648C6.67686 4.59383 8.1678 3.10289 10.0005 3.10289C11.8331 3.10289 13.324 4.59383 13.324 6.42648C13.324 8.25973 11.8331 9.75117 10.0005 9.75117C8.1678 9.75117 6.67686 8.25969 6.67686 6.42648Z" fill="black"/>
</svg>
