<svg width="22" height="22" viewBox="0 0 22 22" fill="none" xmlns="http://www.w3.org/2000/svg">
<path d="M8.00153 15.0011C8.00153 15.2663 7.89615 15.5208 7.70858 15.7083C7.521 15.8959 7.26659 16.0013 7.00132 16.0013C6.73604 16.0013 6.48163 15.8959 6.29406 15.7083C6.10648 15.5208 6.0011 15.2663 6.0011 15.0011C6.0011 14.7358 6.10648 14.4814 6.29406 14.2938C6.48163 14.1062 6.73604 14.0009 7.00132 14.0009C7.26659 14.0009 7.521 14.1062 7.70858 14.2938C7.89615 14.4814 8.00153 14.7358 8.00153 15.0011ZM12.0024 15.0011C12.0024 15.2663 11.897 15.5208 11.7094 15.7083C11.5219 15.8959 11.2675 16.0013 11.0022 16.0013C10.7369 16.0013 10.4825 15.8959 10.2949 15.7083C10.1073 15.5208 10.002 15.2663 10.002 15.0011C10.002 14.7358 10.1073 14.4814 10.2949 14.2938C10.4825 14.1062 10.7369 14.0009 11.0022 14.0009C11.2675 14.0009 11.5219 14.1062 11.7094 14.2938C11.897 14.4814 12.0024 14.7358 12.0024 15.0011ZM16.0033 15.0011C16.0033 15.2663 15.8979 15.5208 15.7103 15.7083C15.5227 15.8959 15.2683 16.0013 15.0031 16.0013C14.7378 16.0013 14.4834 15.8959 14.2958 15.7083C14.1082 15.5208 14.0028 15.2663 14.0028 15.0011C14.0028 14.7358 14.1082 14.4814 14.2958 14.2938C14.4834 14.1062 14.7378 14.0009 15.0031 14.0009C15.2683 14.0009 15.5227 14.1062 15.7103 14.2938C15.8979 14.4814 16.0033 14.7358 16.0033 15.0011Z" fill="black"/>
<path d="M10.002 21.0024H7.0013C4.17269 21.0024 2.75738 21.0024 1.87919 20.1232C1 19.245 1 17.8297 1 15.0011C1 12.1725 1 10.7571 1.87919 9.87895C2.75738 8.99976 4.17269 8.99976 7.0013 8.99976H15.003C17.8317 8.99976 19.247 8.99976 20.1251 9.87895C21.0043 10.7571 21.0043 12.1725 21.0043 15.0011C21.0043 17.8297 21.0043 19.245 20.1251 20.1232C19.247 21.0024 17.8317 21.0024 15.003 21.0024H14.0028M5.00087 8.99976V6.99933C5.00087 6.65926 5.02887 6.32418 5.08389 5.99911M16.8144 5.499C16.5421 4.44743 15.9896 3.48943 15.2158 2.72708C14.442 1.96472 13.4758 1.42657 12.4203 1.16995C11.3648 0.913334 10.2594 0.947867 9.22201 1.26987C8.18457 1.59188 7.25391 2.18929 6.5292 2.99846" stroke="black" stroke-width="1.5" stroke-linecap="round"/>
</svg>
