<svg width="24" height="24" viewBox="0 0 24 24" fill="none" xmlns="http://www.w3.org/2000/svg">
<path d="M8.24998 0C6.99899 0 6.00311 1.01353 6.00311 2.24705V8.24853C6.00311 9.27122 7.50298 9.27122 7.50298 8.24853V2.24705C7.50298 1.81859 7.84205 1.49998 8.24998 1.49998H21.7531C22.1816 1.49998 22.5001 1.84788 22.5001 2.24705V21.7529C22.5001 22.158 22.1816 22.5 21.7531 22.5H8.24998C7.82154 22.5 7.50298 22.158 7.50298 21.7529V15.7514C7.50298 14.7585 6.00311 14.7439 6.00311 15.7514V21.7529C6.00311 23.0011 7.01656 24 8.24998 24H21.7531C22.9866 24 24 23.0011 24 21.7529V2.24705C24 1.01353 23.0012 0 21.7531 0H8.24998ZM11.4723 8.78612L13.936 11.25H0.749198C-0.249733 11.25 -0.249733 12.75 0.749198 12.75H13.9404L11.4723 15.2138C10.7634 15.9228 11.8268 16.9863 12.5357 16.2773L16.2839 12.5288C16.5756 12.2371 16.5756 11.7629 16.2839 11.4712L12.5357 7.72265C11.784 7.03791 10.8041 8.05841 11.4723 8.78612Z" fill="black"/>
</svg>
