<svg width="20" height="23" viewBox="0 0 20 23" fill="none" xmlns="http://www.w3.org/2000/svg">
<path d="M19.7746 14.508L17.6923 12.3611V9.5171C17.6899 7.55169 16.9808 5.657 15.702 4.19941C14.4233 2.74181 12.6657 1.82485 10.7692 1.62584V0H9.23077V1.62584C7.33429 1.82485 5.57674 2.74181 4.29798 4.19941C3.01921 5.657 2.31008 7.55169 2.30769 9.5171V12.3611L0.225385 14.508C0.0811159 14.6567 4.35672e-05 14.8584 0 15.0687V17.448C0 17.6584 0.0810437 17.8601 0.225302 18.0088C0.369561 18.1575 0.565218 18.2411 0.769231 18.2411H6.15385V18.8573C6.13677 19.8636 6.48062 20.8409 7.11943 21.6018C7.75825 22.3628 8.64706 22.8538 9.61539 22.9806C10.1501 23.0353 10.6901 22.974 11.2005 22.8006C11.7108 22.6272 12.1804 22.3456 12.5789 21.9739C12.9774 21.6022 13.296 21.1486 13.5142 20.6423C13.7325 20.136 13.8456 19.5882 13.8462 19.0342V18.2411H19.2308C19.4348 18.2411 19.6304 18.1575 19.7747 18.0088C19.919 17.8601 20 17.6584 20 17.448V15.0687C20 14.8584 19.9189 14.6567 19.7746 14.508ZM12.3077 19.0342C12.3077 19.6652 12.0646 20.2704 11.6318 20.7166C11.199 21.1628 10.612 21.4135 10 21.4135C9.38796 21.4135 8.80099 21.1628 8.36821 20.7166C7.93544 20.2704 7.69231 19.6652 7.69231 19.0342V18.2411H12.3077V19.0342ZM18.4615 16.6549H1.53846V15.3971L3.62077 13.2502C3.76504 13.1015 3.84611 12.8998 3.84615 12.6895V9.5171C3.84615 7.83437 4.4945 6.22056 5.64857 5.0307C6.80264 3.84083 8.3679 3.17237 10 3.17237C11.6321 3.17237 13.1974 3.84083 14.3514 5.0307C15.5055 6.22056 16.1538 7.83437 16.1538 9.5171V12.6895C16.1539 12.8998 16.235 13.1015 16.3792 13.2502L18.4615 15.3971V16.6549Z" fill="black"/>
</svg>
