<svg width="19" height="19" viewBox="0 0 19 19" fill="none" xmlns="http://www.w3.org/2000/svg">
<path d="M14.7692 17.7692H1.23077V4.23077H9.36615L10.5969 3H1.23077C0.904349 3 0.591298 3.12967 0.360484 3.36048C0.12967 3.5913 0 3.90435 0 4.23077V17.7692C0 18.0957 0.12967 18.4087 0.360484 18.6395C0.591298 18.8703 0.904349 19 1.23077 19H14.7692C15.0957 19 15.4087 18.8703 15.6395 18.6395C15.8703 18.4087 16 18.0957 16 17.7692V8.53846L14.7692 9.76923V17.7692Z" fill="black"/>
<path d="M18.7068 2.37757L16.6181 0.292698C16.5254 0.199918 16.4153 0.126306 16.2941 0.0760799C16.1728 0.0258537 16.0428 0 15.9116 0C15.7803 0 15.6503 0.0258537 15.5291 0.0760799C15.4078 0.126306 15.2977 0.199918 15.205 0.292698L6.70786 8.82397L6.01991 11.7997C5.9906 11.944 5.99368 12.0929 6.02893 12.2358C6.06418 12.3787 6.13072 12.5121 6.22377 12.6262C6.31682 12.7404 6.43406 12.8326 6.56706 12.8961C6.70006 12.9597 6.84552 12.993 6.99296 12.9937C7.06917 13.0021 7.14607 13.0021 7.22228 12.9937L10.2282 12.3318L18.7068 3.78811C18.7997 3.69558 18.8735 3.58566 18.9238 3.46464C18.9741 3.34361 19 3.21387 19 3.08284C19 2.95181 18.9741 2.82206 18.9238 2.70104C18.8735 2.58002 18.7997 2.4701 18.7068 2.37757ZM9.58364 11.1872L7.31525 11.6884L7.84206 9.44263L14.2382 3.01479L15.9859 4.7594L9.58364 11.1872ZM16.6863 4.06032L14.9385 2.3157L15.8992 1.33823L17.6593 3.09521L16.6863 4.06032Z" fill="black"/>
</svg>
