<svg width="21" height="21" viewBox="0 0 21 21" fill="none" xmlns="http://www.w3.org/2000/svg">
<path d="M0.183187 15.2805L2.29926 14.2045L3.64599 10.642C3.66185 10.5999 3.68607 10.5615 3.71715 10.5294C3.74823 10.4972 3.7855 10.4719 3.82663 10.455L12.1828 7.05818C12.2413 7.03452 12.3052 7.02875 12.3668 7.04157C12.4284 7.0544 12.485 7.08525 12.5296 7.13034L13.6441 8.26372C13.6878 8.3091 13.7177 8.36644 13.73 8.42875C13.7423 8.49106 13.7366 8.55567 13.7134 8.61472L10.3732 17.1126C10.3566 17.1544 10.3317 17.1923 10.3001 17.2239C10.2685 17.2555 10.2308 17.2801 10.1894 17.2963L6.68623 18.6658L5.62819 20.8178C5.60592 20.8652 5.57275 20.9065 5.53149 20.9382C5.49022 20.9699 5.44208 20.991 5.3911 20.9998C5.37394 21.0014 5.35666 21.0014 5.33949 20.9998C5.25408 20.9995 5.17229 20.9647 5.11208 20.9031L0.0993176 15.8053C0.0624237 15.7691 0.0345488 15.7245 0.0179996 15.6752C0.00145054 15.6258 -0.00329399 15.5732 0.00415993 15.5216C0.0128155 15.4697 0.033597 15.4208 0.0647535 15.3788C0.095911 15.3369 0.13653 15.3031 0.183187 15.2805ZM13.0377 8.57207L12.8586 8.39165L8.69907 12.6217C8.9732 13.0167 9.0916 13.502 9.03084 13.9815C8.97009 14.461 8.73461 14.8999 8.37098 15.2114C8.00734 15.5229 7.54201 15.6842 7.06702 15.6636C6.59202 15.6429 6.14193 15.4418 5.80575 15.0999C5.46957 14.758 5.27177 14.3003 5.25147 13.8173C5.23117 13.3342 5.38984 12.861 5.69612 12.4912C6.00239 12.1214 6.43396 11.8819 6.90549 11.8201C7.37703 11.7584 7.85419 11.8788 8.24264 12.1575L12.4022 7.92748L12.2248 7.74542L4.19759 11.011L2.9315 14.3603L6.53301 18.0229L9.82646 16.7353L13.0377 8.57207ZM7.14912 12.4593C6.85921 12.4598 6.57842 12.5624 6.35458 12.7498C6.13074 12.9371 5.9777 13.1976 5.92154 13.4869C5.86537 13.7761 5.90955 14.0762 6.04655 14.336C6.18355 14.5958 6.4049 14.7993 6.67288 14.9118C6.94086 15.0243 7.2389 15.0388 7.51622 14.9529C7.79354 14.8669 8.03299 14.6859 8.19378 14.4406C8.35456 14.1952 8.42674 13.9008 8.398 13.6074C8.36927 13.3141 8.2414 13.0399 8.03619 12.8317C7.80069 12.5929 7.48164 12.459 7.14912 12.4593ZM5.25078 20.1174L6.05721 18.4772L2.48796 14.8475L0.875103 15.6676L5.25078 20.1174Z" fill="#34A853"/>
<path d="M14.4784 17.5552C14.5401 17.4959 14.6217 17.4628 14.7066 17.4628C14.7915 17.4628 14.8731 17.4959 14.9348 17.5552L15.3445 17.9718C16.4377 16.4629 17.0408 14.6447 17.0697 12.7707C17.0986 10.8967 16.5519 9.06021 15.5058 7.51718C15.1924 7.69256 14.8315 7.75994 14.4772 7.7092C14.123 7.65846 13.7945 7.49234 13.5409 7.23574C13.2873 6.97914 13.1223 6.64587 13.0706 6.28588C13.0189 5.92589 13.0833 5.55856 13.2542 5.23895C11.7369 4.17507 9.93104 3.61909 8.08826 3.64849C6.24548 3.67789 4.45763 4.29121 2.97388 5.40297L3.39 5.81466C3.44999 5.87616 3.48362 5.9593 3.48355 6.04592C3.48379 6.0891 3.47566 6.13189 3.4596 6.17186C3.44355 6.21183 3.4199 6.24818 3.39 6.27883L1.96746 7.714C1.90702 7.7751 1.82527 7.80939 1.74005 7.80939C1.65483 7.80939 1.57307 7.7751 1.51264 7.714L0.0981598 6.27555C0.0681686 6.24508 0.0443783 6.20891 0.0281448 6.16908C0.0119114 6.12926 0.00355339 6.08657 0.00355339 6.04346C0.00355339 6.00035 0.0119114 5.95767 0.0281448 5.91784C0.0443783 5.87802 0.0681686 5.84184 0.0981598 5.81138L1.51264 4.37293C1.57307 4.31183 1.65483 4.27753 1.74005 4.27753C1.82527 4.27753 1.90702 4.31183 1.96746 4.37293L2.51422 4.92567C3.86175 3.89447 5.4549 3.2466 7.13005 3.04857C8.80521 2.85055 10.502 3.1095 12.0462 3.79886L10.1866 1.91264C9.97573 2.01509 9.736 2.03829 9.50993 1.9781C9.28386 1.91791 9.08606 1.77823 8.95162 1.58384C8.81719 1.38945 8.75481 1.15292 8.77555 0.916208C8.79629 0.679495 8.89881 0.457905 9.06492 0.290749C9.23103 0.123593 9.45 0.0216778 9.68297 0.00308364C9.91594 -0.0155106 10.1479 0.0504184 10.3376 0.189174C10.5273 0.32793 10.6626 0.530543 10.7194 0.761067C10.7762 0.991591 10.7508 1.23512 10.6479 1.44846L13.7865 4.6452C14.1052 4.42781 14.4882 4.32968 14.8701 4.36758C15.252 4.40548 15.6091 4.57705 15.8805 4.85299C16.1518 5.12893 16.3205 5.49211 16.3578 5.8805C16.3951 6.2689 16.2986 6.6584 16.0848 6.98247L19.2283 10.1743C19.4389 10.0699 19.679 10.0449 19.9061 10.1036C20.1331 10.1623 20.3324 10.301 20.4684 10.4949C20.6044 10.6889 20.6684 10.9257 20.6489 11.1631C20.6295 11.4005 20.5279 11.6233 20.3623 11.7917C20.1966 11.9602 19.9776 12.0635 19.7441 12.0832C19.5107 12.103 19.2779 12.0379 19.0871 11.8996C18.8964 11.7613 18.76 11.5587 18.7023 11.3278C18.6446 11.0969 18.6692 10.8526 18.7718 10.6385L16.9122 8.75224C17.5907 10.3222 17.8462 12.0475 17.6523 13.751C17.4584 15.4546 16.8222 17.075 15.809 18.4458L16.3541 19.0018C16.4142 19.0633 16.4479 19.1464 16.4479 19.2331C16.4479 19.3197 16.4142 19.4029 16.3541 19.4643L14.9397 20.9028C14.8795 20.9644 14.7977 20.9992 14.7123 20.9996C14.6697 20.9996 14.6275 20.9911 14.5882 20.9745C14.5489 20.9579 14.5132 20.9335 14.4832 20.9028L13.0671 19.4643C13.0071 19.4029 12.9733 19.3197 12.9733 19.2331C12.9733 19.1464 13.0071 19.0633 13.0671 19.0018L14.4784 17.5552ZM1.73682 5.06509L0.778786 6.03936L1.73682 7.01364L2.69486 6.03936L1.73682 5.06509ZM10.0027 0.7645C9.95478 0.715357 9.89358 0.681801 9.82686 0.66809C9.76014 0.654379 9.69093 0.661131 9.62799 0.68749C9.56505 0.713849 9.51124 0.758625 9.47336 0.816139C9.43549 0.873653 9.41527 0.941311 9.41527 1.01053C9.41527 1.07975 9.43549 1.14741 9.47336 1.20492C9.51124 1.26243 9.56505 1.30721 9.62799 1.33357C9.69093 1.35993 9.76014 1.36668 9.82686 1.35297C9.89358 1.33926 9.95478 1.3057 10.0027 1.25656C10.0345 1.22426 10.0597 1.18591 10.0769 1.1437C10.0942 1.10148 10.103 1.05623 10.103 1.01053C10.103 0.964829 10.0942 0.919577 10.0769 0.877362C10.0597 0.835146 10.0345 0.796794 10.0027 0.7645ZM15.4219 5.31932C15.3282 5.22361 15.2169 5.14766 15.0943 5.09583C14.9717 5.04401 14.8402 5.01733 14.7074 5.01733C14.5746 5.01733 14.4432 5.04401 14.3205 5.09583C14.1979 5.14766 14.0866 5.22361 13.9929 5.31932C13.8513 5.46308 13.7549 5.64632 13.7157 5.84585C13.6766 6.04539 13.6965 6.25225 13.773 6.44026C13.8495 6.62827 13.9791 6.78898 14.1454 6.90206C14.3118 7.01514 14.5073 7.07549 14.7074 7.07549C14.9075 7.07549 15.1031 7.01514 15.2694 6.90206C15.4358 6.78898 15.5654 6.62827 15.6419 6.44026C15.7184 6.25225 15.7383 6.04539 15.6991 5.84585C15.66 5.64632 15.5635 5.46308 15.4219 5.31932ZM19.4153 11.3224C19.4812 11.3783 19.5652 11.4071 19.6509 11.4031C19.7365 11.3992 19.8177 11.3628 19.8783 11.3012C19.9389 11.2395 19.9747 11.157 19.9786 11.0699C19.9824 10.9828 19.9541 10.8973 19.8992 10.8304C19.8347 10.7659 19.7478 10.7297 19.6573 10.7297C19.5668 10.7297 19.4799 10.7659 19.4153 10.8304C19.3836 10.8627 19.3583 10.901 19.3411 10.9432C19.3239 10.9854 19.3151 11.0307 19.3151 11.0764C19.3151 11.1221 19.3239 11.1673 19.3411 11.2096C19.3583 11.2518 19.3836 11.2901 19.4153 11.3224ZM14.7074 20.2008L15.6655 19.2265L14.7074 18.2522L13.7494 19.2265L14.7074 20.2008Z" fill="#34A853"/>
</svg>
