<svg width="22" height="16" viewBox="0 0 22 16" fill="none" xmlns="http://www.w3.org/2000/svg">
<path d="M21.0576 2.94515C20.9381 2.50118 20.7041 2.09638 20.3789 1.77127C20.0538 1.44616 19.649 1.21215 19.2051 1.09265C17.5701 0.650147 11.0001 0.650146 11.0001 0.650146C11.0001 0.650146 4.43008 0.650147 2.79508 1.09265C2.35111 1.21215 1.94631 1.44616 1.6212 1.77127C1.29609 2.09638 1.06208 2.50118 0.942576 2.94515C0.637285 4.6126 0.489136 6.30502 0.500076 8.00015C0.489136 9.69528 0.637285 11.3877 0.942576 13.0551C1.06208 13.4991 1.29609 13.9039 1.6212 14.229C1.94631 14.5541 2.35111 14.7881 2.79508 14.9076C4.43008 15.3501 11.0001 15.3501 11.0001 15.3501C11.0001 15.3501 17.5701 15.3501 19.2051 14.9076C19.649 14.7881 20.0538 14.5541 20.3789 14.229C20.7041 13.9039 20.9381 13.4991 21.0576 13.0551C21.3629 11.3877 21.511 9.69528 21.5001 8.00015C21.511 6.30502 21.3629 4.6126 21.0576 2.94515ZM8.90007 11.1501V4.85015L14.3526 8.00015L8.90007 11.1501Z" fill="#F1F1F1"/>
</svg>
