<svg width="1920" height="1115" viewBox="0 0 1920 1115" fill="none" xmlns="http://www.w3.org/2000/svg">
<g opacity="0.5" filter="url(#filter0_f_175_81)">
<ellipse cx="1728" cy="393" rx="315" ry="283" fill="#123064"/>
</g>
<g opacity="0.3" filter="url(#filter1_f_175_81)">
<path fill-rule="evenodd" clip-rule="evenodd" d="M144.752 340.774C197.255 339.842 252.336 323.519 298.846 350.3C346.725 377.871 385.97 428.756 398.078 486.643C409.614 541.798 365.648 591.571 361.098 647.942C356.147 709.29 404.614 779.829 370.471 828.673C336.855 876.764 264.742 847.729 211.193 862.396C160.64 876.241 115.307 927.083 64.963 912.348C14.5939 897.606 -4.04123 831.182 -39.3634 789.062C-76.0909 745.267 -133.052 717.429 -146.806 659.824C-160.873 600.909 -137.088 539.237 -111.977 484.935C-87.5969 432.213 -54.1001 382.625 -6.17493 355.713C39.7346 329.934 93.2021 341.689 144.752 340.774Z" fill="#123064"/>
</g>
<g opacity="0.5" filter="url(#filter2_f_175_81)">
<path fill-rule="evenodd" clip-rule="evenodd" d="M1054.51 512.568C1077.85 512.154 1102.34 504.893 1123.02 516.806C1144.31 529.07 1161.76 551.705 1167.15 577.455C1172.27 601.989 1152.73 624.13 1150.7 649.205C1148.5 676.495 1170.05 707.872 1154.87 729.599C1139.92 750.992 1107.86 738.076 1084.05 744.6C1061.57 750.759 1041.41 773.375 1019.03 766.82C996.631 760.263 988.345 730.715 972.639 711.979C956.308 692.498 930.98 680.115 924.865 654.491C918.61 628.284 929.186 600.85 940.351 576.695C951.192 553.243 966.086 531.185 987.396 519.214C1007.81 507.746 1031.58 512.975 1054.51 512.568Z" fill="#132F62"/>
</g>
<g opacity="0.5" filter="url(#filter3_f_175_81)">
<path fill-rule="evenodd" clip-rule="evenodd" d="M638.505 41.9811C661.85 41.6614 686.342 36.0609 707.022 45.2496C728.312 54.709 745.762 72.168 751.145 92.0294C756.275 110.953 736.726 128.03 734.703 147.371C732.501 168.42 754.052 192.622 738.87 209.381C723.923 225.881 691.858 215.919 668.048 220.951C645.57 225.702 625.413 243.146 603.027 238.09C580.631 233.032 572.345 210.242 556.639 195.79C540.308 180.764 514.98 171.213 508.865 151.448C502.61 131.234 513.186 110.074 524.351 91.4432C535.192 73.354 550.086 56.3402 571.396 47.1068C591.809 38.2617 615.584 42.2949 638.505 41.9811Z" fill="#132F62"/>
</g>
<g opacity="0.2">
<path d="M1499.52 727.246C1489.82 683.235 1497.5 586.351 1605.85 550.898C1714.2 515.445 1748.4 424.043 1751.96 382.773C1754.71 342.277 1776.54 261.711 1841.78 263.422C1907.03 265.133 1923.62 189.259 1923.76 151.109C1921.14 126.028 1929.45 70.0936 1983.67 47.0083" stroke="#7D8087"/>
<path d="M1483.95 714.416C1474.25 670.406 1481.93 573.521 1590.28 538.068C1698.63 502.615 1732.83 411.213 1736.39 369.944C1739.15 329.447 1760.97 248.882 1826.21 250.593C1891.46 252.303 1908.05 176.43 1908.19 138.279C1905.57 113.198 1913.88 57.264 1968.11 34.1787" stroke="#7D8087"/>
<path d="M1468.38 701.585C1458.68 657.574 1466.37 560.69 1574.71 525.237C1683.06 489.784 1717.26 398.382 1720.82 357.112C1723.58 316.616 1745.4 236.05 1810.65 237.761C1875.89 239.472 1892.48 163.598 1892.62 125.448C1890 100.366 1898.31 44.4324 1952.54 21.3471" stroke="#7D8087"/>
<path d="M1452.81 688.754C1443.11 644.744 1450.8 547.86 1559.14 512.407C1667.49 476.954 1701.69 385.552 1705.25 344.282C1708.01 303.786 1729.83 223.22 1795.08 224.931C1860.32 226.642 1876.91 150.768 1877.06 112.618C1874.43 87.5364 1882.74 31.6023 1936.97 8.51705" stroke="#7D8087"/>
<path d="M1437.25 675.924C1427.54 631.913 1435.23 535.029 1543.58 499.576C1651.92 464.123 1686.13 372.721 1689.68 331.452C1692.44 290.955 1714.26 210.39 1779.51 212.1C1844.75 213.811 1861.35 137.938 1861.49 99.7872C1858.86 74.7058 1867.17 18.7718 1921.4 -4.31352" stroke="#7D8087"/>
<path d="M1421.68 663.094C1411.98 619.084 1419.66 522.2 1528.01 486.746C1636.36 451.293 1670.56 359.891 1674.11 318.622C1676.87 278.126 1698.7 197.56 1763.94 199.271C1829.19 200.981 1845.78 125.108 1845.92 86.9576C1843.3 61.8762 1851.6 5.94218 1905.83 -17.1431" stroke="#7D8087"/>
<path d="M1406.11 650.264C1396.41 606.253 1404.09 509.369 1512.44 473.916C1620.79 438.463 1654.99 347.061 1658.55 305.792C1661.3 265.295 1683.13 184.729 1748.37 186.44C1813.62 188.151 1830.21 112.278 1830.35 74.127C1827.73 49.0457 1836.04 -6.88838 1890.26 -29.9737" stroke="#7D8087"/>
<path d="M1390.54 637.433C1380.84 593.422 1388.52 496.538 1496.87 461.085C1605.22 425.632 1639.42 334.23 1642.98 292.96C1645.73 252.464 1667.56 171.898 1732.8 173.609C1798.05 175.32 1814.64 99.4465 1814.78 61.296C1812.16 36.2146 1820.47 -19.7194 1874.69 -42.8047" stroke="#7D8087"/>
</g>
<g opacity="0.2">
<path d="M-9.08479 444.974C-8.19665 409.036 16.4113 335.47 107.738 328.704C199.065 321.939 243.303 257.682 254.007 226.399C263.938 195.562 296.44 137.335 347.005 151.12C397.569 164.905 425.089 109.312 432.529 79.7924C435.301 59.8665 452.528 18.1339 499.262 10.6111" stroke="#7D8087"/>
<path d="M-18.7642 432.065C-17.8761 396.127 6.73186 322.561 98.0585 315.795C189.385 309.029 233.624 244.773 244.327 213.49C254.258 182.653 286.761 124.426 337.325 138.211C387.89 151.996 415.41 96.4028 422.849 66.8832C425.621 46.9573 442.849 5.22477 489.583 -2.29811" stroke="#7D8087"/>
<path d="M-28.4432 419.154C-27.555 383.216 -2.94709 309.649 88.3796 302.884C179.706 296.118 223.945 231.862 234.648 200.579C244.579 169.742 277.082 111.514 327.646 125.3C378.211 139.085 405.731 83.4917 413.17 53.972C415.942 34.0462 433.17 -7.68636 479.904 -15.2092" stroke="#7D8087"/>
<path d="M-38.1221 406.244C-37.234 370.307 -12.626 296.74 78.7006 289.975C170.027 283.209 214.266 218.953 224.97 187.67C234.9 156.833 267.403 98.6053 317.967 112.39C368.532 126.175 396.052 70.5825 403.491 41.0629C406.263 21.137 423.491 -20.5955 470.225 -28.1184" stroke="#7D8087"/>
<path d="M-47.8013 393.334C-46.9132 357.396 -22.3052 283.83 69.0214 277.064C160.348 270.298 204.587 206.042 215.29 174.759C225.221 143.922 257.724 85.6946 308.288 99.4797C358.853 113.265 386.373 57.6718 393.812 28.1522C396.584 8.22633 413.812 -33.5062 460.546 -41.0291" stroke="#7D8087"/>
<path d="M-57.4805 380.424C-56.5924 344.486 -31.9844 270.92 59.3422 264.154C150.669 257.389 194.908 193.132 205.611 161.85C215.542 131.013 248.044 72.785 298.609 86.57C349.174 100.355 376.694 44.7622 384.133 15.2426C386.905 -4.68334 404.133 -46.4159 450.867 -53.9387" stroke="#7D8087"/>
<path d="M-67.1597 367.514C-66.2716 331.576 -41.6636 258.01 49.663 251.244C140.99 244.479 185.228 180.222 195.932 148.939C205.863 118.102 238.365 59.8748 288.93 73.6599C339.494 87.4449 367.014 31.852 374.454 2.3324C377.226 -17.5935 394.453 -59.326 441.188 -66.8489" stroke="#7D8087"/>
<path d="M-76.8387 354.604C-75.9506 318.666 -51.3426 245.1 39.9841 238.334C131.311 231.568 175.549 167.312 186.253 136.029C196.184 105.192 228.686 46.9646 279.251 60.7497C329.816 74.5348 357.335 18.9418 364.775 -10.5778C367.547 -30.5037 384.774 -72.2362 431.509 -79.759" stroke="#7D8087"/>
</g>
<defs>
<filter id="filter0_f_175_81" x="1213" y="-90" width="1030" height="966" filterUnits="userSpaceOnUse" color-interpolation-filters="sRGB">
<feFlood flood-opacity="0" result="BackgroundImageFix"/>
<feBlend mode="normal" in="SourceGraphic" in2="BackgroundImageFix" result="shape"/>
<feGaussianBlur stdDeviation="100" result="effect1_foregroundBlur_175_81"/>
</filter>
<filter id="filter1_f_175_81" x="-351" y="135" width="951" height="980" filterUnits="userSpaceOnUse" color-interpolation-filters="sRGB">
<feFlood flood-opacity="0" result="BackgroundImageFix"/>
<feBlend mode="normal" in="SourceGraphic" in2="BackgroundImageFix" result="shape"/>
<feGaussianBlur stdDeviation="100" result="effect1_foregroundBlur_175_81"/>
</filter>
<filter id="filter2_f_175_81" x="723" y="310" width="645" height="658" filterUnits="userSpaceOnUse" color-interpolation-filters="sRGB">
<feFlood flood-opacity="0" result="BackgroundImageFix"/>
<feBlend mode="normal" in="SourceGraphic" in2="BackgroundImageFix" result="shape"/>
<feGaussianBlur stdDeviation="100" result="effect1_foregroundBlur_175_81"/>
</filter>
<filter id="filter3_f_175_81" x="307" y="-160" width="645" height="599" filterUnits="userSpaceOnUse" color-interpolation-filters="sRGB">
<feFlood flood-opacity="0" result="BackgroundImageFix"/>
<feBlend mode="normal" in="SourceGraphic" in2="BackgroundImageFix" result="shape"/>
<feGaussianBlur stdDeviation="100" result="effect1_foregroundBlur_175_81"/>
</filter>
</defs>
</svg>
